<?xml version="1.0" encoding="utf-8"?>
<!-- Generator: Adobe Illustrator 22.0.0, SVG Export Plug-In . SVG Version: 6.00 Build 0)  -->
<svg version="1.1" id="Layer_1" xmlns="http://www.w3.org/2000/svg" xmlns:xlink="http://www.w3.org/1999/xlink" x="0px" y="0px"
	 viewBox="0 0 126.6 102.8" style="enable-background:new 0 0 126.6 102.8;" xml:space="preserve">
<style type="text/css">
	.st0{fill:none;stroke:#FFFFFF;stroke-width:4.6401;stroke-miterlimit:10;}
</style>
<g>
	<polyline class="st0" points="47.2,24.8 19.4,24.8 19.4,31.7 14.7,31.7 14.7,41 19.4,41 19.4,54.9 	"/>
	<line class="st0" x1="24" y1="8.5" x2="24" y2="24.8"/>
	<line class="st0" x1="33.3" y1="17.8" x2="33.3" y2="24.8"/>
	<line class="st0" x1="24" y1="36.4" x2="28.6" y2="36.4"/>
	<polyline class="st0" points="58.8,54.9 58.8,36.4 82,36.4 82,50.3 	"/>
	<rect x="35.6" y="36.4" class="st0" width="23.2" height="18.6"/>
	<polyline class="st0" points="82,50.3 82,36.4 105.2,36.4 105.2,50.3 	"/>
	<rect x="47.2" y="20.1" class="st0" width="23.2" height="16.2"/>
	<rect x="70.4" y="20.1" class="st0" width="23.2" height="16.2"/>
	<path class="st0" d="M99.1,77.6c2-7.6,17.7-13.4,17.7-27.3H75.3l-10.9,4.6c0,0-42.7,0-49.7,0v13.7c0,3.4,0.2,5.6,1.3,7.3"/>
	<path class="st0" d="M103.7,81L96,75c-1.7-1.3-4-1.2-5.5,0.4l-2.9,2.9c-1.6,1.6-3.9,1.7-5.6,0.3l-4.3-3.5c-1.7-1.4-3.9-1.3-5.5,0.2
		l-3.3,3.1C67.3,80,65,80,63.3,78.6l-3.9-3.4c-1.7-1.4-3.9-1.4-5.5,0.1l-3.7,3.3c-1.7,1.5-4,1.5-5.6,0L41,75.3
		c-1.6-1.5-3.9-1.5-5.5-0.1l-4.1,3.5c-1.7,1.4-4,1.4-5.6-0.2l-3.1-3c-1.6-1.5-3.8-1.7-5.5-0.3l-7.4,6"/>
	<path class="st0" d="M116.8,89.8l-2-1.6c-1.7-1.3-4-1.2-5.5,0.4l-2.9,2.9c-1.6,1.6-3.9,1.7-5.6,0.3l-4.3-3.5
		c-1.7-1.4-3.9-1.3-5.5,0.2l-3.3,3.1c-1.6,1.6-3.9,1.6-5.6,0.1l-3.9-3.4c-1.7-1.4-3.9-1.4-5.5,0.1l-3.7,3.3c-1.7,1.5-4,1.5-5.6,0
		l-3.5-3.2c-1.6-1.5-3.9-1.5-5.5-0.1l-4.1,3.5c-1.7,1.4-4,1.4-5.6-0.2l-3.1-3c-1.6-1.5-3.8-1.7-5.5-0.3l-7.4,6"/>
	<line class="st0" x1="82" y1="59.6" x2="77.4" y2="59.6"/>
</g>
</svg>
