<?xml version="1.0" encoding="utf-8"?>
<!-- Generator: Adobe Illustrator 22.0.0, SVG Export Plug-In . SVG Version: 6.00 Build 0)  -->
<svg version="1.1" id="Layer_1" xmlns="http://www.w3.org/2000/svg" xmlns:xlink="http://www.w3.org/1999/xlink" x="0px" y="0px"
	 viewBox="0 0 71.1 65.7" style="enable-background:new 0 0 71.1 65.7;" xml:space="preserve">
<style type="text/css">
	.st0{fill:#00ACE5;}
	.st1{fill:#001370;}
</style>
<g>
	<path class="st0" d="M38.4,60h-5.3c-1.8,0-3.3-1.5-3.3-3.3l0,0c0-1.8,1.5-3.3,3.3-3.3h5.3c1.8,0,3.3,1.5,3.3,3.3l0,0
		C41.7,58.6,40.2,60,38.4,60z"/>
	<g>
		<path class="st1" d="M59.1,22.2C56.3,11.6,46.6,4.1,35.6,4.1c-11,0-20.6,7.5-23.5,18.1c-2.8,0.5-4.9,3-4.9,5.9v6.7
			c0,2.6,1.7,4.8,4,5.7v2.8c0,8.4,6.9,15.3,15.3,15.3h1.9c0.8,1.8,2.5,3,4.6,3h5c2.7,0,5-2.2,5-5c0-2.7-2.2-5-5-5h-5
			c-2.1,0-3.8,1.3-4.6,3h-1.9c-6.3,0-11.5-5.1-11.5-11.5v-4.4c0-1.1-0.9-1.9-1.9-1.9c-1.2,0-2.1-1-2.1-2.1V28c0-1.2,1-2.1,2.1-2.1
			l0.5,0h0c0.9,0,1.7-0.6,1.9-1.5c1.9-9.5,10.4-16.4,20-16.4c9.7,0,18.2,6.9,20.1,16.4c0.2,0.9,1,1.6,1.9,1.6H58
			c1.2,0,2.1,1,2.1,2.1v6.7c0,1.2-1,2.1-2.1,2.1c-1.1,0-1.9,0.9-1.9,1.9c0,1.1,0.9,1.9,1.9,1.9c3.3,0,6-2.7,6-6V28
			C63.9,25.1,61.8,22.7,59.1,22.2L59.1,22.2z M33,55.5h5c0.6,0,1.1,0.5,1.1,1.1c0,0.6-0.5,1.1-1.1,1.1h-5c-0.6,0-1.1-0.5-1.1-1.1
			C31.9,56,32.4,55.5,33,55.5L33,55.5z M33,55.5"/>
		<path class="st1" d="M35.6,13.4c-9.9,0-18,8.1-18,18c0,9.9,8.1,18,18,18c9.9,0,18-8.1,18-18C53.6,21.4,45.5,13.4,35.6,13.4
			L35.6,13.4z M35.6,45.6c-7.8,0-14.2-6.4-14.2-14.2c0-7.8,6.4-14.2,14.2-14.2c7.8,0,14.2,6.4,14.2,14.2
			C49.8,39.2,43.4,45.6,35.6,45.6L35.6,45.6z M35.6,45.6"/>
	</g>
</g>
</svg>
