<?xml version="1.0" encoding="utf-8"?>
<!-- Generator: Adobe Illustrator 22.0.0, SVG Export Plug-In . SVG Version: 6.00 Build 0)  -->
<svg version="1.1" id="Layer_1" xmlns="http://www.w3.org/2000/svg" xmlns:xlink="http://www.w3.org/1999/xlink" x="0px" y="0px"
	 viewBox="0 0 31.8 22.7" style="enable-background:new 0 0 31.8 22.7;" xml:space="preserve">
<style type="text/css">
	.st0{fill:#001370;}
</style>
<g>
	<g>
		<path class="st0" d="M24.5,6.2l-8.7,7.7L7,6.2C6.6,5.9,6.1,6,5.8,6.3C5.5,6.6,5.5,7.2,5.9,7.5l9.3,8.2c0.2,0.1,0.4,0.2,0.6,0.2
			c0.2,0,0.4-0.1,0.6-0.2l9.3-8.2c0.3-0.3,0.4-0.8,0.1-1.2C25.4,6,24.8,5.9,24.5,6.2L24.5,6.2z M24.5,6.2"/>
		<path class="st0" d="M26.7,2.7h-22c-1.4,0-2.5,1.1-2.5,2.5v13.3c0,1.4,1.1,2.5,2.5,2.5h22c1.4,0,2.5-1.1,2.5-2.5V5.2
			C29.2,3.8,28.1,2.7,26.7,2.7L26.7,2.7z M27.6,18.5c0,0.5-0.4,0.8-0.8,0.8h-22c-0.5,0-0.8-0.4-0.8-0.8V5.2c0-0.5,0.4-0.8,0.8-0.8
			h22c0.5,0,0.8,0.4,0.8,0.8V18.5z M27.6,18.5"/>
	</g>
</g>
</svg>
