<?xml version="1.0" encoding="utf-8"?>
<!-- Generator: Adobe Illustrator 22.0.0, SVG Export Plug-In . SVG Version: 6.00 Build 0)  -->
<svg version="1.1" id="Layer_1" xmlns="http://www.w3.org/2000/svg" xmlns:xlink="http://www.w3.org/1999/xlink" x="0px" y="0px"
	 viewBox="0 0 124.5 126.2" style="enable-background:new 0 0 124.5 126.2;" xml:space="preserve">
<style type="text/css">
	.st0{fill:#FFFFFF;}
</style>
<path class="st0" d="M62.2,12C32.5,12,8.3,36.2,8.3,65.9c0,9.6,2.5,18.9,7.3,27.1c-0.8,0.6-1.4,1.5-1.4,2.6v8.4
	c0,1.1,0.6,2.1,1.5,2.6l7.7,4.6c0.5,0.3,1,0.4,1.6,0.4c0.5,0,1.1-0.1,1.6-0.4l3.4-2c9.2,6.9,20.6,10.7,32.2,10.7
	c29.7,0,53.9-24.2,53.9-53.9C116.1,36.2,91.9,12,62.2,12z M23.4,88.3L22.2,89c-3.5-6.1-5.6-12.9-6.1-20h18.7
	c0.3,7.2,1.5,14.2,3.6,20.6c-2,0.6-4,1.4-6,2.2l-5.8-3.6C25.7,87.6,24.4,87.6,23.4,88.3z M59.1,39.7c-2-0.1-4-0.2-6-0.5v-3.1
	c0-1.1-0.6-2.1-1.5-2.6l-2.1-1.3c2.7-4.5,6-8.2,9.5-10.9V39.7z M47,37.9v4.9l-4.6,2.8l-4.6-2.8v-4.9l4.6-2.8L47,37.9z M42.2,52.2
	c0.1,0,0.1,0,0.2,0c0.5,0,1.1-0.1,1.6-0.4l7.7-4.6c0.7-0.4,1.1-1,1.4-1.8c2,0.2,4.1,0.4,6.1,0.4v17.1H41
	C41.1,59.2,41.5,55.7,42.2,52.2z M59.1,69v17.1C54,86.3,49.1,86.9,44.3,88c-1.9-5.8-3.1-12.3-3.3-19H59.1z M59.1,92.3v18.4
	c-5.2-3.9-9.5-9.8-12.6-16.8C50.6,93,54.8,92.4,59.1,92.3z M65.3,92.3c4.3,0.2,8.5,0.8,12.6,1.7c-3.1,7-7.4,12.8-12.6,16.7V92.3z
	 M65.3,86.2V69h9v2.1c0,1.1,0.6,2.1,1.5,2.6l6.8,4.1c-0.6,3.6-1.4,7-2.5,10.3C75.3,87.1,70.4,86.4,65.3,86.2z M86.6,73.1l-6.2-3.7
	v-6.7l6.2-3.8l6.2,3.8v6.7L86.6,73.1z M82.6,54.1l-6.8,4.3c-0.9,0.6-1.4,1.6-1.4,2.6v1.9h-9V45.8c5.1-0.2,10.1-0.9,14.8-2
	C81.1,47,82,50.5,82.6,54.1z M65.3,39.6V21.3c5.1,3.9,9.4,9.7,12.6,16.7C73.8,38.9,69.6,39.4,65.3,39.6z M74.4,21.4
	c7.3,2,13.8,5.7,19.2,10.7c-3,1.7-6.3,3.1-9.8,4.2C81.4,30.6,78.2,25.5,74.4,21.4z M44.4,29L44,28.8c-1-0.6-2.2-0.6-3.2,0l-7.7,4.7
	c0,0-0.1,0.1-0.1,0.1c-0.8-0.4-1.6-0.8-2.4-1.2c5.4-5.1,12.1-9,19.5-11C47.9,23.6,46.1,26.2,44.4,29z M31.6,39.8v4.7
	c0,1.1,0.6,2.1,1.5,2.6l3.4,2c-1,4.4-1.5,9-1.7,13.7H16.1c0.6-9.7,4.3-18.6,10.1-25.8C27.9,38,29.7,38.9,31.6,39.8z M35.8,97.1
	c1.5-0.6,3.1-1.2,4.7-1.7c2.5,5.8,5.7,10.9,9.4,15.1c-5-1.4-9.8-3.6-14.2-6.7V97.1z M83.8,95.6c3.5,1.1,6.7,2.5,9.8,4.2
	c-5.3,5-11.9,8.7-19.1,10.7C78.2,106.4,81.4,101.3,83.8,95.6z M86,89.9c1.1-3.4,2-7,2.6-10.7l8.8-5.4c0.9-0.6,1.5-1.6,1.5-2.6V69
	h9.4c-0.7,9.9-4.4,19-10.4,26.2C94.3,93.1,90.3,91.3,86,89.9z M98.9,62.9v-1.9c0-1.1-0.5-2-1.4-2.6l-8.9-5.5
	c-0.6-3.7-1.5-7.3-2.6-10.7c4.3-1.4,8.3-3.2,12-5.4c5.9,7.2,9.7,16.3,10.3,26.1H98.9z M25,105l-4.6-2.8v-4.9l4.6-2.8l4.6,2.8v4.9
	L25,105z"/>
</svg>
