<?xml version="1.0" encoding="utf-8"?>
<!-- Generator: Adobe Illustrator 22.0.0, SVG Export Plug-In . SVG Version: 6.00 Build 0)  -->
<svg version="1.1" id="Layer_1" xmlns="http://www.w3.org/2000/svg" xmlns:xlink="http://www.w3.org/1999/xlink" x="0px" y="0px"
	 viewBox="0 0 124.5 149.9" style="enable-background:new 0 0 124.5 149.9;" xml:space="preserve">
<style type="text/css">
	.st0{fill:#FFFFFF;}
</style>
<path class="st0" d="M62.2,32.5c-14.3,0-25.9,11.6-25.9,25.9c0,14.3,11.6,25.9,25.9,25.9c14.3,0,25.9-11.6,25.9-25.9
	C88.1,44.1,76.5,32.5,62.2,32.5z M71.5,61.8l2.2,12.8l-11.5-6l-11.5,6l2.2-12.8l-9.3-9.1l12.9-1.9l5.7-11.6L68,50.8l12.9,1.9
	L71.5,61.8z M116.2,56.5c-0.1-2.8-1.5-5.4-3.9-6.9l-6.9-4.5l3.3-7.5c1.7-3.9,0.3-8.3-3.3-10.6c-1.2-0.8-2.6-1.2-4.2-1.3l-8.1-0.4
	L92.2,17c-0.3-2.8-2-5.2-4.4-6.6c-2.4-1.3-5.5-1.3-7.9-0.1l-7.3,3.7l-4.9-6.6c-1.6-2.2-4.2-3.5-6.9-3.5c-0.4,0-0.7,0-1.2,0.1
	c-2.6,0.5-4.9,2.1-6.3,4.3l-4.1,6.4l-7.5-3.3c-3.2-1.4-7.2-0.6-9.7,2c-1.4,1.5-2.2,3.4-2.3,5.6l-0.4,8l-8,0.9
	c-1.7,0.2-3.3,0.8-4.5,1.8c-3.2,2.6-4.2,7-2.3,10.6l3.7,7.3l-6.6,4.9c-2.2,1.7-3.5,4.3-3.4,7.1c0.1,2.8,1.5,5.4,3.9,6.9l6.9,4.5
	l-3.3,7.5c-1.7,3.9-0.3,8.4,3.3,10.7c1.2,0.8,2.6,1.2,4.2,1.3l8,0.4l0.2,2.1l-17.1,35.1c-0.6,1.2-0.5,2.6,0.3,3.7
	c0.8,1.1,2.1,1.6,3.4,1.5l14.4-1.8l7.2,12.4c0.6,1.1,1.8,1.8,3.1,1.8c0,0,0.1,0,0.1,0c1.3,0,2.5-0.8,3.1-2l15.6-31.9
	c0.6,0.2,1.3,0.2,2,0.2c0.1,0,0.3,0,0.3,0c0.5,0,1.1-0.1,1.6-0.2L81,143.8c0.6,1.2,1.8,2,3.1,2c0,0,0.1,0,0.1,0
	c1.3,0,2.5-0.7,3.1-1.8l7.2-12.4l14.4,1.8c1.3,0.2,2.6-0.4,3.4-1.5c0.8-1.1,0.9-2.5,0.3-3.7L95.4,93c-0.1-0.3-0.3-0.5-0.5-0.7
	l0.2-3.2l8.1-0.9c2.8-0.3,5.2-2,6.6-4.5c1.3-2.5,1.4-5.4,0.1-7.9l-3.7-7.3l6.6-4.9C115,61.9,116.2,59.2,116.2,56.5z M42.6,134.6
	l-5.1-8.7c-0.7-1.2-2.1-1.9-3.5-1.8l-10.2,1.3l10.6-21.7c0.7,0.8,1.5,1.4,2.4,1.9c1.7,0.9,3.7,1.2,5.6,0.8L36.3,119
	c-0.5,1.1-0.1,2.4,1,2.9c0.3,0.1,0.6,0.2,0.9,0.2c0.8,0,1.6-0.4,1.9-1.2l8.3-17l3.5-1.8l3.9,5.4L42.6,134.6z M103.3,125.5l-10.2-1.3
	c-1.4-0.2-2.8,0.5-3.5,1.8l-5.1,8.7l-13.2-27.1l4-6.1l2.8,1.2l9,18.3c0.4,0.8,1.1,1.2,1.9,1.2c0.3,0,0.6-0.1,0.9-0.2
	c1.1-0.5,1.5-1.8,1-2.9L84,105.1c2.7,0.7,5.6,0,7.8-1.8c0.2-0.1,0.3-0.3,0.5-0.5L103.3,125.5z M108.4,57.8l-8.9,6.6
	c-1.5,1.1-2,3.1-1.1,4.7l5,9.9c0.2,0.4,0.2,0.9,0,1.3c-0.2,0.4-0.6,0.7-1.1,0.7l-11,1.3c-1.8,0.2-3.2,1.7-3.3,3.5l-0.6,10.9
	c0,0.5-0.2,0.9-0.5,1.2c-0.6,0.5-1.1,0.4-1.5,0.2l-10.2-4.4c-1.7-0.7-3.6-0.1-4.6,1.4l-6,9.3c-0.2,0.4-0.7,0.6-1.1,0.6l0,3.6V105
	c-0.4,0-0.9-0.2-1.1-0.6l-6.6-8.9c-0.7-1-1.9-1.5-3-1.5c-0.6,0-1.2,0.1-1.7,0.4l-9.9,5c-0.4,0.2-0.9,0.2-1.3,0
	c-0.4-0.2-0.7-0.6-0.7-1.1l-1.3-11c-0.2-1.8-1.7-3.2-3.5-3.3l-11-0.6c-0.5,0-0.7-0.1-0.7-0.2c-0.7-0.5-0.8-1.3-0.6-1.8l4.4-10.2
	c0.7-1.7,0.2-3.6-1.4-4.6l-9.3-6c-0.4-0.2-0.6-0.7-0.6-1.1c0-0.5,0.2-0.9,0.6-1.2l8.9-6.6c1.5-1.1,1.9-3.1,1.1-4.7l-5-9.9
	c-0.3-0.5-0.2-1.3,0.4-1.8c0.1-0.1,0.4-0.2,0.8-0.3l10.9-1.2c1.8-0.2,3.2-1.7,3.3-3.5l0.6-10.9c0-0.4,0.2-0.8,0.4-1.1
	c0.4-0.4,1.1-0.6,1.6-0.3l10.2,4.4c1.7,0.7,3.6,0.1,4.6-1.4l5.7-8.8c0.4-0.6,0.9-1,1.6-1.1c0.4,0,0.8,0.2,1,0.6l6.6,8.9
	c1.1,1.5,3.1,2,4.7,1.1l9.9-5.1c0.4-0.2,0.9-0.2,1.3,0c0.4,0.2,0.7,0.6,0.7,1.1l1.2,11c0.2,1.8,1.7,3.2,3.5,3.3l11,0.6
	c0.5,0,0.7,0.1,0.7,0.2c0.7,0.5,0.8,1.3,0.6,1.8l-4.4,10.2c-0.7,1.7-0.1,3.6,1.4,4.6l9.3,6c0.4,0.2,0.6,0.7,0.6,1.1
	C109,57.1,108.8,57.6,108.4,57.8z"/>
</svg>
