<?xml version="1.0" encoding="utf-8"?>
<!-- Generator: Adobe Illustrator 22.0.0, SVG Export Plug-In . SVG Version: 6.00 Build 0)  -->
<svg version="1.1" id="Layer_1" xmlns="http://www.w3.org/2000/svg" xmlns:xlink="http://www.w3.org/1999/xlink" x="0px" y="0px"
	 viewBox="0 0 124.5 126.2" style="enable-background:new 0 0 124.5 126.2;" xml:space="preserve">
<style type="text/css">
	.st0{fill:none;stroke:#FFFFFF;stroke-width:5.2496;stroke-miterlimit:10;}
</style>
<g>
	<path class="st0" d="M117.4,103.8l-9-9.1c-2-2-4.7-1.8-6.5,0.6l-3.4,4.4c-1.9,2.4-4.6,2.7-6.6,0.5l-5.1-5.4c-2-2.1-4.6-2-6.5,0.3
		l-3.8,4.7c-1.9,2.4-4.6,2.4-6.6,0.2l-4.6-5.1c-1.9-2.2-4.6-2.1-6.5,0.1l-4.3,5c-2,2.3-4.6,2.2-6.6-0.1L43.8,95
		c-1.9-2.3-4.5-2.3-6.5-0.2l-4.8,5.2c-2,2.2-4.7,2.1-6.6-0.3l-3.7-4.6c-1.9-2.3-4.5-2.5-6.5-0.4l-8.7,9"/>
	<path class="st0" d="M117.4,119.5l-9-9.1c-2-2-4.7-1.8-6.5,0.6l-3.4,4.4c-1.9,2.4-4.6,2.7-6.6,0.5l-5.1-5.4c-2-2.1-4.6-2-6.5,0.3
		l-3.8,4.7c-1.9,2.4-4.6,2.4-6.6,0.2l-4.6-5.1c-1.9-2.2-4.6-2.1-6.5,0.1l-4.3,5c-2,2.3-4.6,2.2-6.6-0.1l-4.1-4.9
		c-1.9-2.3-4.5-2.3-6.5-0.2l-4.8,5.2c-2,2.2-4.7,2.1-6.6-0.3l-3.7-4.6c-1.9-2.3-4.5-2.5-6.5-0.4l-8.7,9"/>
	<polyline class="st0" points="91.1,48.7 91.1,30.3 80.6,30.3 80.6,19.8 43.9,19.8 43.9,30.3 33.4,30.3 33.4,48.7 	"/>
	<polyline class="st0" points="70.1,19.8 70.1,6.7 54.4,6.7 54.4,19.8 	"/>
	<path class="st0" d="M28.1,90.7c0,0-8.5-25.9-10.5-34.1c0,0,28.2-15.4,44.6-18.4c16.5,3,44.6,18.4,44.6,18.4
		c-2,8.2-10.5,34.1-10.5,34.1"/>
	<line class="st0" x1="62.2" y1="38.2" x2="62.2" y2="80.2"/>
	<line class="st0" x1="46.5" y1="56.5" x2="51.7" y2="56.5"/>
</g>
</svg>
