<?xml version="1.0" encoding="utf-8"?>
<!-- Generator: Adobe Illustrator 22.0.0, SVG Export Plug-In . SVG Version: 6.00 Build 0)  -->
<svg version="1.1" id="Layer_1" xmlns="http://www.w3.org/2000/svg" xmlns:xlink="http://www.w3.org/1999/xlink" x="0px" y="0px"
	 viewBox="0 0 155.6 148.1" style="enable-background:new 0 0 155.6 148.1;" xml:space="preserve">
<style type="text/css">
	.st0{fill:#00ACE5;}
	.st1{fill:#FFFFFF;}
</style>
<g>
	<circle class="st0" cx="77.8" cy="74" r="69"/>
	<g>
		<path class="st1" d="M106.5,77.9c-0.6-1.1-1.1-2.1-1.6-3.1c-0.3-0.6-0.5-0.6-1-0.2C95,80.7,85.3,85.4,75.1,88.9
			c-7.5,2.6-15.3,4.5-23.2,5.2c-6.1,0.5-12.1,0.5-18-1.6c-2-0.7-3.8-1.6-5.3-3c-1.7-1.6-2.9-3.5-3.2-5.8c-0.5-3.5-1-7-0.7-10.7
			c0.3,0.4,0.3,0.9,0.5,1.3c1.2,3.4,3.8,5.3,6.9,6.6c4.6,1.8,9.4,2.2,14.3,1.9c18.8-1.2,35.7-7.9,51.3-18.3c0.6-0.4,0.7-0.7,0.2-1.3
			c-0.7-0.8-1.2-1.7-1.8-2.6c0,0,0-0.1,0-0.2c4.4,0.5,8.8,1,13.3,1.2c0.7,0,0.9,0.2,0.8,1c-0.7,5-1.8,9.9-3.4,14.6
			C106.7,77.5,106.6,77.6,106.5,77.9z"/>
		<path class="st1" d="M68.8,115.1c-1.9-0.6-3.8-1.2-5.6-1.8c-3-1-5.9-2.3-8.8-3.7c-0.9-0.4-0.9-0.7-0.3-1.5c2.3-3,4.6-6,7-9.1
			c0.6,0.9,0.9,2,1.3,3c0.2,0.6,0.5,0.8,1.2,0.7c7.3-1.4,14.3-3.5,21.1-6.2c9.2-3.7,17.9-8.2,25.9-14.2c5.2-3.9,10-8.2,13.7-13.6
			c2.4-3.6,4.2-7.4,3.9-12.1c0.6,0.9,0.7,1.7,1,2.5c0.9,2.7,1.5,5.4,1.9,8.2c0.4,2.7-0.3,5.2-1.5,7.6c-2.3,5.1-6,9.1-10.1,12.8
			c-10.9,9.7-23.6,16.1-37.3,20.7c-4.6,1.5-9.2,2.8-14,3.6c-0.7,0.1-0.7,0.4-0.4,0.9c0.4,0.6,0.8,1.3,1.2,1.9
			C68.8,115,68.8,115.1,68.8,115.1z"/>
		<path class="st1" d="M90.4,22.8c3,0.4,5.7,1.6,8.4,2.7c1.2,0.5,2.4,1,3.4,1.7c3.9,2.4,5.2,6.3,3.6,10.9c-1.5,4.4-4.4,7.8-7.6,10.9
			c-7.9,7.5-17.4,12.6-27.4,16.6c-5.1,2-10.4,3.6-15.8,4.5c-0.6,0.1-0.7,0.4-0.6,0.8c0.1,1.1,0.3,2.2,0.4,3.7
			c-1.3-1-2.4-1.9-3.5-2.8c-2.1-1.7-3.9-3.6-5.5-5.7c-0.3-0.4-0.5-0.7-0.1-1.2c2.7-3,5.2-6.2,7.6-9.5c0-0.1,0.2-0.1,0.3-0.2
			c0,1,0,1.9,0,2.8c0,0.7,0.2,0.9,0.9,0.8c12.1-2.6,23.2-7.4,32.8-15.3c3.2-2.7,6.1-5.7,7.9-9.6c1.2-2.6,1.6-5.3-0.2-7.9
			c-0.9-1.3-2.3-2.2-3.7-2.9C91,23,90.7,22.9,90.4,22.8L90.4,22.8z"/>
		<path class="st1" d="M79.6,42.3c-0.9-0.7-1.6-1.3-2.3-1.9c-0.5-0.5-0.9-0.4-1.4,0c-6.1,4.2-12.8,7-20,8.6
			c-4.2,0.9-8.4,1.4-12.7,0.5c-1-0.2-2-0.5-2.9-1c-2.6-1.4-3.6-3.7-2.7-6.6c0.9-2.8,2.6-5.1,4.9-6.9c1.7-1.4,3.6-2.4,5.9-3.2
			c-0.8,1-1.4,1.7-1.9,2.6c-1.3,2.5-0.4,4.6,2.3,5.4c2.3,0.7,4.7,0.4,7.1,0c4.3-0.8,10.1-3.2,13-5.5c-0.7-0.4-1.4-0.8-2.3-1.3
			c1.3,0,2.2,0.3,3.2,0.4c1.9,0.3,3.8,0.4,5.8,0.5c0.6,0,1,0.2,1.3,0.8C78.4,36.9,79.3,39.4,79.6,42.3z"/>
		<path class="st1" d="M121.8,99.5c-2.5,4.1-5,8-8.3,11.4c0.1-0.5,0.2-0.9,0.3-1.5c-2.3,1.6-4.6,3.1-6.9,4.4
			c-9.6,5.4-19.8,9.2-30.7,11c-5.6,0.9-11.3,1.2-16.9-0.3c-3.5-1-6.6-2.9-9.7-4.7c-0.4-0.2-0.8-0.5-1.2-0.8c0.4-0.2,0.7-0.1,1,0
			c4.9,1.8,10.1,2,15.2,1.6c17.4-1.5,33.2-7.7,47.8-17.2c1.9-1.2,1.9-1.2,1.5-3.4c-0.1-0.8,0.1-0.9,0.8-0.9
			C116.9,99.3,119.3,99.4,121.8,99.5z"/>
		<path class="st1" d="M90.4,22.7c-0.1,0-0.2,0-0.3-0.1c0,0,0,0,0.1,0C90.3,22.7,90.3,22.7,90.4,22.7C90.4,22.8,90.4,22.7,90.4,22.7
			z"/>
	</g>
</g>
</svg>
