<?xml version="1.0" encoding="utf-8"?>
<!-- Generator: Adobe Illustrator 22.0.0, SVG Export Plug-In . SVG Version: 6.00 Build 0)  -->
<svg version="1.1" id="Layer_1" xmlns="http://www.w3.org/2000/svg" xmlns:xlink="http://www.w3.org/1999/xlink" x="0px" y="0px"
	 viewBox="0 0 95.9 94.8" style="enable-background:new 0 0 95.9 94.8;" xml:space="preserve">
<style type="text/css">
	.st0{fill:#FFFFFF;}
</style>
<g>
	<path class="st0" d="M69.8,50.3c-0.4-0.8-0.8-1.6-1.2-2.4c-0.2-0.5-0.4-0.5-0.8-0.2c-6.8,4.7-14.1,8.3-21.9,11
		c-5.8,2-11.6,3.4-17.7,3.9c-4.6,0.4-9.3,0.3-13.7-1.2c-1.5-0.5-2.9-1.2-4.1-2.3c-1.3-1.2-2.2-2.7-2.5-4.5c-0.4-2.7-0.7-5.4-0.5-8.1
		c0.3,0.3,0.3,0.7,0.4,1c0.9,2.6,2.9,4.1,5.3,5c3.5,1.4,7.2,1.7,10.9,1.5c14.4-0.9,27.3-6,39.1-13.9c0.5-0.3,0.5-0.5,0.2-1
		c-0.5-0.6-0.9-1.3-1.4-2c0,0,0-0.1,0-0.2c3.4,0.4,6.7,0.8,10.1,1c0.5,0,0.7,0.1,0.6,0.7c-0.5,3.8-1.4,7.5-2.6,11.2
		C70,50,69.9,50.1,69.8,50.3z"/>
	<path class="st0" d="M41.1,78.7c-1.4-0.5-2.9-0.9-4.3-1.4c-2.3-0.8-4.5-1.8-6.7-2.8c-0.7-0.3-0.7-0.5-0.2-1.1
		c1.8-2.3,3.5-4.6,5.3-6.9c0.5,0.7,0.7,1.5,1,2.3c0.2,0.5,0.4,0.6,0.9,0.5c5.5-1,10.9-2.7,16.1-4.7c7-2.8,13.7-6.3,19.8-10.8
		c4-3,7.6-6.2,10.5-10.4c1.9-2.7,3.2-5.7,3-9.3c0.5,0.7,0.6,1.3,0.7,1.9c0.7,2,1.1,4.2,1.4,6.3c0.3,2-0.3,4-1.1,5.8
		c-1.8,3.9-4.6,7-7.7,9.7c-8.3,7.4-18,12.3-28.5,15.8c-3.5,1.2-7,2.1-10.7,2.8c-0.5,0.1-0.5,0.3-0.3,0.7c0.3,0.5,0.6,1,0.9,1.5
		C41.1,78.6,41.1,78.7,41.1,78.7z"/>
	<path class="st0" d="M57.6,8.2c2.3,0.3,4.3,1.2,6.4,2c0.9,0.4,1.8,0.7,2.6,1.3c3,1.9,4,4.8,2.8,8.3c-1.1,3.3-3.3,5.9-5.8,8.3
		c-6.1,5.7-13.2,9.6-20.9,12.7c-3.9,1.5-7.9,2.7-12.1,3.5c-0.4,0.1-0.5,0.3-0.5,0.6c0.1,0.9,0.2,1.7,0.3,2.8c-1-0.8-1.8-1.4-2.6-2.1
		c-1.6-1.3-3-2.7-4.2-4.3c-0.2-0.3-0.4-0.5-0.1-0.9c2-2.3,4-4.7,5.8-7.2c0-0.1,0.1-0.1,0.2-0.1c0,0.8,0,1.4,0,2.1
		c0,0.5,0.1,0.7,0.7,0.6c9.2-2,17.7-5.6,25-11.7c2.5-2,4.7-4.3,6-7.3c0.9-2,1.2-4-0.2-6c-0.7-1-1.7-1.7-2.8-2.2
		C58,8.4,57.8,8.3,57.6,8.2L57.6,8.2z"/>
	<path class="st0" d="M49.4,23.1c-0.7-0.6-1.2-1-1.7-1.5c-0.4-0.4-0.7-0.3-1.1,0c-4.7,3.2-9.8,5.4-15.3,6.6
		c-3.2,0.7-6.4,1.1-9.7,0.4c-0.8-0.2-1.5-0.4-2.2-0.8c-2-1.1-2.8-2.9-2.1-5c0.7-2.2,2-3.9,3.7-5.3c1.3-1,2.7-1.8,4.5-2.4
		c-0.6,0.7-1.1,1.3-1.4,2c-1,1.9-0.3,3.5,1.7,4.1c1.8,0.5,3.6,0.3,5.4,0c3.3-0.6,7.7-2.4,9.9-4.2c-0.5-0.3-1.1-0.6-1.7-1
		c1,0,1.7,0.2,2.5,0.3c1.5,0.2,2.9,0.3,4.4,0.4c0.5,0,0.7,0.2,1,0.6C48.4,19,49.1,20.9,49.4,23.1z"/>
	<path class="st0" d="M81.5,66.8c-1.9,3.1-3.8,6.1-6.3,8.7c0.1-0.4,0.1-0.7,0.2-1.2c-1.8,1.2-3.5,2.3-5.3,3.3
		C62.8,81.8,55,84.7,46.7,86c-4.3,0.7-8.6,0.9-12.9-0.2c-2.7-0.7-5-2.2-7.4-3.6c-0.3-0.2-0.6-0.4-0.9-0.6c0.3-0.2,0.5-0.1,0.8,0
		c3.8,1.3,7.7,1.6,11.6,1.2c13.3-1.1,25.3-5.9,36.4-13.1c1.4-0.9,1.4-0.9,1.2-2.6c-0.1-0.6,0.1-0.7,0.6-0.7
		C77.8,66.6,79.6,66.7,81.5,66.8z"/>
	<path class="st0" d="M57.6,8.2c-0.1,0-0.2,0-0.3,0c0,0,0,0,0,0C57.5,8.2,57.5,8.2,57.6,8.2C57.6,8.2,57.6,8.2,57.6,8.2z"/>
</g>
</svg>
