<?xml version="1.0" encoding="utf-8"?>
<!-- Generator: Adobe Illustrator 22.0.0, SVG Export Plug-In . SVG Version: 6.00 Build 0)  -->
<svg version="1.1" id="Layer_1" xmlns="http://www.w3.org/2000/svg" xmlns:xlink="http://www.w3.org/1999/xlink" x="0px" y="0px"
	 viewBox="0 0 183.8 149.9" style="enable-background:new 0 0 183.8 149.9;" xml:space="preserve">
<style type="text/css">
	.st0{fill:#FFFFFF;}
</style>
<path class="st0" d="M153.4,31.3V37h21.5v-5.6H153.4z M126,48.8c-1.1,0-2,0.9-2,2c0,1.1,0.9,2,2,2c1.1,0,2-0.9,2-2
	c0-0.3-0.1-0.6-0.2-0.8l15-15h6.1c0.4,0,0.7-0.3,0.7-0.7c0-0.4-0.3-0.7-0.7-0.7h-6.6L126.9,49C126.6,48.8,126.3,48.8,126,48.8z
	 M30.7,19.2H13.2v5.6h17.5V19.2z M35.2,22.8h6.1l15,15c-0.1,0.2-0.2,0.5-0.2,0.8c0,1.1,0.9,2,2,2c1.1,0,2-0.9,2-2s-0.9-2-2-2
	c-0.3,0-0.6,0.1-0.9,0.2L41.9,21.5h-6.6c-0.4,0-0.7,0.3-0.7,0.7C34.6,22.5,34.9,22.8,35.2,22.8z M154.4,117.3h14.9v-5.6h-14.9V117.3
	z M149.9,113.8h-6.1l-15-15c0.1-0.2,0.2-0.5,0.2-0.8c0-1.1-0.9-2-2-2c-1.1,0-2,0.9-2,2s0.9,2,2,2c0.3,0,0.6-0.1,0.9-0.2l15.4,15.4
	h6.6c0.4,0,0.7-0.3,0.7-0.7C150.5,114.1,150.3,113.8,149.9,113.8z M7.5,124.7h14.9v-5.6H7.5V124.7z M73,64.2c0.7,0,1-0.5,1.5-0.7
	c0.2-0.7-0.3-1.4,0-2.1c-0.7-1.1-1.2,0.5-1.9,0.5c0.1,0.7,0.1,1.2-0.1,1.7C72.7,63.8,72.8,64.1,73,64.2z M75.5,58.2
	c-0.8-0.1-1.3,0.4-1.5,1.1c0.1,0.5,0.3,0.7,0.6,1c0.1,0.3,0,0.5,0,0.8c0.2,0.2,0.4,0.5,0.6,0.8c0.3,0,0.5,0.1,0.7,0.2
	c-0.2,0.1-0.1,0.3,0,0.6c-0.2,0.1-0.2,0.3-0.4,0.4c0.3,0.4-0.3,0.7-0.1,1c0.1,0.2,0.4,0,0.4,0.3c-0.1,0.5-0.8,0.4-0.7,1
	c0.2,0.3,0.5,0.2,0.8,0.2c0.5-0.5,1.3-0.5,2.1-0.7c0.7-0.6,0.5-2.3-0.4-2.6c-0.2-1.2-1-1.6-1.5-2.3c0.1-0.4,0.3-0.8,0.1-1.4
	c-0.2-0.1-0.3,0.1-0.6,0C75.6,58.4,75.6,58.4,75.5,58.2z M104.4,107.8c-0.3-0.5-0.6-1.4-1-1.3c-0.5,0.1-0.3,1.2-0.8,1.5
	c0,0.3,0.2,0.4,0.1,0.6c-0.1,0-0.1,0.1-0.2,0.2c-0.8-0.1-1.1,0.7-1.4,1.5c0.4,1.3-0.2,2.9,0,4.2c0.5,0.4,0.6,1.4,1.1,1.4
	c0.7,0,0.7-1.4,1.1-2.1c-0.2-1.4,0.7-2.2,0.6-3.8C104.2,109.4,104.2,108.5,104.4,107.8z M117.1,33.4c0.3,0.1,0.7,0,0.9-0.2
	c-0.2-0.2-0.5-0.4-0.7-0.6C117.3,32.8,117.2,33,117.1,33.4z M100.2,44.7c0.3,0.3,0.2,0.6,0.4,0.8c0.5-0.3,1.5,0.3,1.5-0.8
	c-0.1-0.2-0.2,0.1-0.4,0c-0.7-1.4-0.1-2.8,0.8-3.1c0.2-1.1,1.1-1.3,1.6-1.9c0,0.2,0.2,0,0.3,0.1c0.9-1,2-0.7,2.9-1.4
	c0-0.5-0.2-0.6-0.4-1c-0.8-0.5-1.2,0.3-1.8,0.6c-0.3,0.1-0.6,0-0.9,0.2c-0.5,0.2-1,0.7-1.6,0.9c-0.4,0.2-1,0-1.3,0.2
	c-0.3,0.2-0.4,0.7-0.6,1.1c-0.1,0.3-0.4,0.5-0.4,0.6c0,0,0.1,0.1,0,0.1c-0.3,0.5-0.7,0.8-0.8,1.5c0.1,0,0,0.5,0.2,0.5
	c-0.3,0.3-0.6,0.5-0.5,0.9C99.5,44.5,99.9,44.4,100.2,44.7z M119.6,35.3c0.2-0.1,0.4-0.2,0.6-0.3c-0.6-0.5-1.2-1-1.8-1.5
	c-0.1,0.1-0.2,0.2-0.3,0.3C118.5,34.4,119,34.9,119.6,35.3z M135.8,81.9c-1-0.4-1.3,0.7-0.9,1.6c0.2,0.1,0.4,0.2,0.7,0.1
	C135.6,83.1,135.9,82.7,135.8,81.9z M135.3,88.8c0.3-0.9,0.5-1.8,0.7-2.7c0-0.1-0.1-0.1-0.1-0.2c-0.4,0-0.6,0.4-0.8,0.6
	c0.2,0.8,0,1.2,0,1.8C135.2,88.5,135.2,88.7,135.3,88.8z M131.7,49.7l-1,1c0,2.6-2.1,4.7-4.7,4.7c-2.6,0-4.7-2.1-4.7-4.7
	s2.1-4.7,4.7-4.7c0,0,0.1,0,0.1,0l2.1-2.1c-1.7-2.5-3.7-4.8-5.8-6.9c-0.2,0.1-0.3,0.2-0.5,0.3c-0.1,0.1,0.1,0.3,0,0.5
	c-0.6,0.6-2.1,0.8-2.9,0.4c-0.4,0.1-0.6,0.5-1,0.7c-0.8,0.6-2.1,0.5-2.5,1.3c-0.2,0.4,0.2,0.5,0.2,1c-0.7,0.4-2.3,0.2-2.9,0.8
	c-0.2,0.3,0.3,0.3,0.2,0.7c0.9,0.1,1.4,1.3,1.3,2.4c-0.3-0.5-0.6-1-0.9-1.5c-0.6-0.5-2-1-2.4,0.1c0.1,0.6,0.7,0.5,0.8,1.1
	c-0.3,0.2-0.7-0.1-1-0.3c0-0.3,0.2-0.7,0-1.1c-0.5,0-0.6,0.2-0.9,0.5c0.1,0.5,0.1,1-0.1,1c0.4,0.5,0.4,1.5,0.7,2.2
	c0.1-0.1,0.8-0.4,1.1,0c-0.6-0.1-0.8,0.3-1.1,0.5c0.1,0.3,0,0.7,0,1c-0.5,0.2-0.8,1.1-1.4,1c0.3-0.6,0.6-1.4,0.7-2.2
	c-0.2-0.6-0.5-1.3-0.6-1.9c0-0.7,0.5-1.2,0.2-2.2c-0.1-0.2-0.5-0.9-0.8-1c-0.5-0.1-1.3,0.8-1.5,1.2c-0.1,0.1-0.3,0.5-0.3,0.6
	c-0.2,1.1,0.5,2.4,0.7,3.3c-0.4,0-0.9-0.4-1.3-0.8c-0.5-0.2-0.8,0-1.2-0.1c-0.8-0.1-1.2-1.2-1.9-0.9c-0.1,0.8,0.8,0.7,0.5,1.6
	c-0.2,0-0.5,0-0.8-0.2c-0.6,0.8-1.1,0.1-1.6,0.2c-0.2,0-0.6,0.1-0.9,0.2c-0.5,0.1-0.8,0.6-1.2,0.8c-0.3,0.2-0.5,0.2-0.8,0.4
	c-0.5,0.3-0.7,1.2-1.2,0.7c-0.1-0.6,0.3-0.6,0.2-1.1c-0.4-0.4-0.9-1.1-1.4-0.5c0,0.9,0.1,1.6-0.2,2.1c-0.9,0.2-1.1,1.1-1.5,1.9
	c-0.3-0.2-0.5-0.1-0.8,0c-0.2,0.2-0.1,0.7-0.4,0.7c-0.3-0.1-0.3-0.3-0.4-0.7c-0.4-0.6-1-0.9-1.2-1.8c1.2,0.7,2.9,0.7,3.4-1.1
	c-0.3-0.6-0.8-0.4-1.2-0.8c-0.5-1.2-1.6-1.7-2.7-1.6c-0.3-0.3-0.5-0.3-0.9-0.4c-0.1-0.2-0.2-0.4-0.4-0.5c-0.6,0.1-1,0.2-1.4-0.1
	c-0.8,0.4-1.9,0-2.6,0.8c-0.2,0.1-0.3-0.1-0.5-0.1c-0.6,1.2-2.2,1.5-2.6,2.8c-0.9,0.3-1.5,1.4-1.3,2.8c-0.3,1.5-1.3,2.4-2.1,3.1
	c0.3,0.9,0.2,2.2,0.3,3.1c0.2,0.4,0.6,0.1,0.9,0.3c0.2,0.1,0.2,0.3,0.4,0.4c0.5,0,0.7-0.5,1.1-0.9c0.3,0.2,0.6,0.4,1,0.4
	c0.2,0.5,0.5,0.9,1,1c0.4-0.8,0.7-1.7,0.9-2.8c-0.2-0.4-0.5-0.6-0.7-0.9c-0.5-2,1.6-2.2,1.7-4c0.3-0.3,0.9-1,1.3-0.5
	c0.1,0.1,0,0.3,0.1,0.5c-0.8,1.1-1.8,2.1-1.3,4.3c0.4,0,0.6,0.6,1.1,0.7c0.5,0.1,1-0.3,1.4-0.3c0.1,0,0.1,0.2,0.1,0.2
	c0.1,0.1,0.4-0.3,0.4,0c-0.1,0-0.1,0.2-0.1,0.3c-0.6-0.1-1.8,0.2-1.8,0.8c0,0.2,0.5,0.5,0.5,0.7c0.2,0.9-0.5,1.1-1.1,0.7
	c-0.5,0.1-0.3,1-0.3,1.7c-0.7,0.6-1.4,0.5-2.6,0.6c-0.4-0.8-0.8-2.1-1.6-2.4c-0.5-0.2-0.9,0.3-1.3,0.7c-0.2,1.2,1.2,3.3-0.6,3.1
	c-0.4,0.7-1.2,1.1-1.4,2.1c-0.9,0.3-1.1,1.3-1.8,1.7c0-0.2-0.1-0.2-0.3-0.2c-0.1,0.8-1.2,0.2-1.2,1c0.6,0.6,1.3,1,1.6,1.9
	c-0.1,0.4,0,1.1-0.1,1.5c-1,0.2-2.7-0.3-3.5,0.6c0.2,0.7,0.3,1.3,0.3,1.9c0,0.7,0,1.4,0.2,2.2c0.6,0.4,1.1,0.7,1.8,1
	c0.1-0.1,0.2-0.3,0.3-0.3c1.3,0.3,2.5-0.9,2.1-2.6c0.1-0.1,0.2-0.2,0.3-0.3c0.5-0.4,1-0.9,1.1-1.8c0.7-0.2,0.9-0.5,1.6-0.1
	c0.6-0.1,0.9-1,1.6-0.9c0.7,0.1,1.5,1.5,1.3,2.4c0.1,0.1,0.2,0.2,0.3,0.4c0.3,0.6,0.5,1.3,1.2,1.1c0.2-0.2,0.2-0.6,0.1-1
	c0,0,0.1-0.1,0.1-0.1c0.1-0.1,0.3-0.1,0.2-0.4c-0.4-0.4-0.8-1-0.9-2c0.8-0.3,1.4,0.6,1.5,1.9c0.1,0.1,0.3,0.3,0.4,0.5
	c0.5,0.6,0.9,1.4,1.1,2.6c0.9-0.1,0.8-1.6,0.6-2.4c0,0,0.1-0.1,0.1-0.1c0.3-0.3,0.7-0.7,1.2-0.5c0,0.2,0,0.4,0,0.5
	c0,0.5,0.1,0.9,0.1,1.6c0.3,0.4,0.6,0.7,0.9,1.1c0.9,0,1.8-0.2,2.4,0.3c0.3-0.1,0.5-0.4,0.9-0.5c0.3,1.3-0.2,2.3-0.3,3.4
	c-0.5,0.3-1-0.2-1.5-0.1c-0.3,0-0.6,0.3-0.8,0.4c-1.6,0.2-3.2-2.1-4.6-0.6c0,0.2,0,0.6,0,0.8c-0.5,0.3-1-0.4-1.2-0.8
	c-0.5-0.2-1.3-0.5-2-0.9c0-0.7-0.1-1-0.2-2.1c-0.3-0.6-1-0.3-1.5-0.5c-0.3,0.3-0.9,0.4-1.3,0.1c-1.1,0.8-3.1,0.9-4.2,1.5
	c-0.3-0.3-0.8-0.6-1.2-0.2c-0.2,1.1-1,1.5-1.5,2.3l0.1,1.3c-0.2,0.4-0.5,0.5-0.6,0.9c-0.6,0.5-1.2,1.3-1.6,1.9
	c0.2,0.8-0.8,1.3-0.8,2.1c0,0.3,0.1,0.4,0.2,0.8c0.1,0.5,0.1,1,0.2,1.5c0.2,0.9,0,1.6-0.1,2.6c0,1.1,0.4,1.3,0.9,1.7
	c0.4,1.4,1.5,1.7,1.9,3.2c0.5,0.1,0.6,0.8,0.8,1.1c0.5,0.4,1,0.6,1.6,0.5c0.4-0.5,1.2-0.4,1.7,0c0.8-0.2,1.9-0.4,2.6-1
	c0.2,0.2,0.4,0,0.7,0c0.3,0.8,1.1,0.9,1.9,0.9c0.2,0.3,0.3,0.6,0.4,0.9c0.1,1-0.2,1.5-0.3,2.2c0.6,1.5,2,2,2,3.9
	c0.3,0.5,0.6,0.9,0.7,1.4c0.7,2.3-1,3.6-0.6,5.8c0.1,0.6,0.6,1.1,0.8,1.8c0.3,0.7,0.5,1.5,0.6,2.4c0.4,1.4,0.6,3.5,1.2,4.4
	c0.5-0.1,0.7,1,0.8,1.8c0.8,1.8,3.6,0.6,5,0.2c0-0.2,0.1-0.5,0.1-0.7c1-0.8,1.5-2.2,2.1-3.4c0-0.7-0.1-0.7-0.1-1.4
	c0.4-0.4,0.7-0.4,0.8-0.9c0.3-0.8-0.2-1.4-0.3-2c-0.1-0.6,0.7-1.3,1-1.8c0.2-0.3,0.5-0.7,0.8-0.9c0.9-0.7,0.6-1.6,0.5-3.2
	c-0.3-0.3-0.2-0.7-0.3-1c-0.3-0.7-0.8-1.2-0.8-2.2c0-0.6,0.6-2.5,0.7-2.9c0.3-0.6,1.2-1.3,1.7-2c0.5-0.6,0.9-1.3,1.3-1.8
	c0.2-1.1,0.4-2.2,0.9-3c-0.1-0.9,0.4-1.4,0.6-1.9c-1.3-0.8-1.9,0.7-2.8,0.7c-0.6,0-0.8-0.4-1.1-0.7c-0.6-0.5-1.1-0.8-1.5-1.5
	c0-0.4-0.3-0.8-0.4-1.1c-0.6-0.6-1.1-1.7-1.5-2.7c-0.6-1.5-1.3-3-1.8-4.4c0-0.1-0.2,0.1-0.3-0.2c0.6-0.6,1.1,0.9,1.4,1.5
	c0.5,1.1,1.4,1.1,1.3,2.4c0.4,0.6,0.9,1,1.3,1.5c0.5,0.9,0.5,2.2,0.8,3.5c1,1.1,2.2-0.4,3.5-0.4c0.6-1.1,1.6-1.9,2.9-2.2
	c0.3-1.2,1.3-1.7,1.1-3.5c-0.3-0.5-0.9-0.7-1.3-1c-0.2-0.4-0.4-0.9-0.9-1c-0.2,0.6-0.4,1-0.9,1c-0.6,0-0.7-0.7-1.1-0.9
	c-0.3-0.2-0.4,0.1-0.7-0.2c-0.2-0.3-0.1-0.6-0.1-1c-0.3-0.5-0.8-0.6-0.8-1.4c1.1-0.3,1.4,1.7,2.4,2c0.4,0.1,0.9,0,1.4-0.1
	c0.1,0.2,0.2,0.2,0.4,0.4c1.4,0.3,2.9,0.8,4.6,0.6c0.4,1,1.3,1.2,1.8,1.4c0,0.9,0.2,1.5,0.9,1.4c0.1-0.2,0.1-0.5,0.3-0.7
	c0.1,0.2,0.3,0.1,0.3,0.4c-0.1,0-0.2,0-0.2,0.1c0.4,0.5,0.3,1.5,0.3,2c0.1,0.5,0.4,1.1,0.3,1.8c0.7,1.7,1.1,2.3,1.7,3.9
	c0.2,0,0.3,0.3,0.5,0.3c0.3-0.3,0.6-0.6,0.9-0.9c0-1.3,0.6-2.1,0.3-3.9c1.1-1.2,2.2-2.3,2.8-4c0.7,0.1,1.2-0.2,1.5-0.6
	c0.5,1.3,1.9,1.9,1.6,3.6c0.4,0.7,1.3,0.8,1.8,0.2c0.3,1,1.1,2.9,0.8,4.2c0.2,0.3,0.3,0.8,0.5,1.2c0.3-0.1,0.6-0.1,0.9-0.2
	c-0.6-0.9-1-2-0.3-2.8c0.6,0.4,1.1,0.9,1.7,1.3c0.2,0.5,0.2,0.9,0.5,1c0.4-0.2,0.3-1,0.9-0.7c0.3-0.6,1-0.7,1.1-1.5
	c-0.2-0.9-0.5-1.7-0.7-2.5c-0.2-0.3-0.6-0.4-0.8-0.7c0.1-0.6-0.5-1.2-0.3-2c0.3-0.3,0.7-0.5,1.2-0.6c0.2,0.1,0.2,0.3,0.3,0.5
	c0.5-0.4,1.1-0.5,1.4-1.1c0.2-0.1,0.2,0.1,0.4,0c0.9-0.5,1.9-0.9,2.4-1.9c0-1.4,0.9-1.7,0.7-3.3c0-0.3-0.3-0.3-0.3-0.6
	c0-1.3-0.7-1.4-0.8-2.5c0.3-0.5,0.8-0.7,1-1.4c-0.1-1-0.9-0.6-1.7-0.6c-0.1-0.2-0.1-0.4,0-0.5c0.1-0.5,0.5-0.8,0.9-1.1
	c0.2,0.1,0.3,0.4,0.4,0.7c0.4,0.1,0.7,0,1.2,0c0.2,0.1,0.3,0.2,0.4,0.4c0.2,0.4,0.4,0.9,0.6,1.4c-0.4,1.1,0.2,1.6,0.8,1.5
	c0-0.8,0.1-1.6,0.1-2.4c0-0.1,0-0.3,0-0.4c0,0-0.1,0-0.1-0.1c-0.1-0.1-0.2-0.2-0.3-0.5c0.1-0.1,0.2-0.2,0.3-0.4
	C137.4,64.2,135.3,56.5,131.7,49.7z M96.9,71.9c-0.4,0.1-0.6,0.5-1.2,0.4c-0.4-0.1-0.7-0.6-1.1-0.8c-0.4-0.1-2.3,0-2.9,0.2
	c-0.3,0.1-0.4,0.6-0.8,0.5c0.3-0.5-0.2-0.7-0.2-1.2c0-0.4,0.2-0.5,0.4-1c0.3-0.7,0.4-1.6,1.1-1.8c0.1,0.3,0.4,0.5,0.7,0.5
	c0,0.4,0.1,0.5,0.2,0.9c0.5,0.2,0.8-0.2,1.2-0.5c0-0.4-0.2-0.4-0.2-0.8c0.3-0.3,1.1,0,1.3-0.6c0.2,0.4-0.2,0.7-0.2,1
	c0.5,1.2,1.3,1.8,2,2.5C97.1,71.6,96.8,71.6,96.9,71.9z M100.9,73.1c0-0.2,0.1-0.3,0.1-0.4c-0.1-1.5-1.4-2.2-1.3-3.6
	c0.7-0.7,1.9-1.6,2.8-1c-0.1,0.8-1.1,0.6-1.1,1.5c0.3,0.7,0.9,1.4,1.2,2.5c0.1,0.3,0,0.7,0.1,1c0,0,0,0,0,0H100.9z M131.5,96.7
	c0.1,0.3,0.1,0.5,0.1,0.8c0.3-0.6,0.7-1.3,1-1.9c-0.3,0.4-0.7,0.7-1,1.1C131.6,96.7,131.6,96.7,131.5,96.7z M129.7,86.2
	c0.5,0.8,1.3-0.2,1-0.9C130.2,85.5,129.8,85.5,129.7,86.2z M116.7,93.6c0.3,0.2,0.1,1,0.5,1.4c0.3,0,0.6,0.1,0.9-0.2
	c0-1.3-0.4-1.7-1-2C116.9,93,117,93.5,116.7,93.6z M47.9,68c0.2,1.1,1.1,0.1,1.7,0.1c0-0.3,0.2-0.7,0-1.1c-0.1,0-0.1-0.1-0.2-0.1
	C49.3,67.8,48.6,68.2,47.9,68z M67.3,52c0.4,1.8,2,0.7,3,0.5c0.1-0.5,0.3-1,0.8-1.1c0.1-0.5,0-0.9-0.1-1.5c-1.3,0.1-2.1,0.5-3.3,0.4
	C66.5,48.3,65.6,51.8,67.3,52z M47,48.1c-0.6-0.5-1.5-0.5-1.9-1.4c0-0.2,0.2,0.2,0.1-0.2c-0.3-1-0.9-1.4-1.4-2.1l-0.3,0
	c-0.6,0.9-1.2,1.9-1.8,2.8c0.1,0.2,0.3,0.3,0.4,0.6c0.1,0.4-0.2,0.7-0.1,1.3c0,0.2-0.4,0.2-0.5,0.3c0,0.3,0.4,0.3,0.2,0.4
	c-0.2,0,0,0.1,0,0.2c-0.3,0.1-1.1-0.3-1.4,0.4c0.1,1.6,1,0.9,1.9,0.9c0.3,0.4,0.8,0.7,1.1,1.2c1.2,0.2,1.8,2,3.1,1.5
	c-0.2-0.9-0.9-0.8-1.2-1.5c0.6-0.3,0.7,0.4,1.4,0.3c0.7-0.6,0.1-1.9-0.8-1.8c-0.1-0.4-0.3-0.7-0.4-1.2c0.8-0.3,1.3,0.6,2.1,0.6
	c0.2-0.5,0.4-1.1,0.6-1.6C47.7,48.5,47.2,48.5,47,48.1z M20.6,73.9c0,15.6,5.5,29.9,14.6,41.2l4.7-4.7c-7.9-10-12.7-22.7-12.7-36.5
	c0-17.4,7.6-33,19.5-43.8l-4.7-4.7C28.9,37.5,20.6,54.8,20.6,73.9z M66.2,45.4c-0.3,0.1-0.8,0.2-1-0.1c0.5-0.8,1,0.1,1.7,0
	c0.1-0.9-0.7-1.4-0.6-2.6c-0.2-0.2-0.6,0.2-0.6-0.3c0.4-0.4,0.8,0.5,1.4,0.3c0.1-0.4,0.5-0.8,0.5-1.5c0-0.3-0.2-0.6-0.2-0.9
	c0-0.2,0.2-0.3,0.2-0.4c0.2-0.6-0.2-1-0.3-1.5c0.3-0.1,0.6-0.2,0.9-0.4c-0.1-0.9-0.6-1.2-1.2-1.4c-0.3-1.5,0.7-2,1-2.9
	c1.3-0.3,1.9-1.4,2.5-2.5c-0.2-0.2-0.4,0-0.8,0c-0.8-1-3.2,0-3.9,0.4c-0.1-0.3,0.1-0.3,0-0.6c-0.2-0.3-0.6-0.1-0.7-0.4
	c0.4-0.1,1-0.1,1.1-0.5c-0.4-0.9-1.3-1-1.9-1.6c-0.3,0-0.7,0.2-0.8,0.1c-0.5-0.1-1.2-0.3-1.9-0.5c-2.5,1.3-4.8,2.8-7,4.5l1.7,1.7
	c0.5-0.2,1.1-0.3,1.7-0.3c2.6,0,4.7,2.1,4.7,4.7s-2.1,4.7-4.7,4.7s-4.7-2.1-4.7-4.7c0-0.6,0.1-1.1,0.3-1.6l-2-2
	c-1.2,1.1-2.4,2.2-3.5,3.5c0.8,1,1.3,2.4,2.2,3.3c-0.1,0.8,0.1,1.6,0.5,2.1c1.3-1,2.2,1.1,2.2,2.4c-0.2,0.3-0.6,0.6-0.3,1.1
	c-0.4,0.5-1.2,0.8-1.2,1.6c0,1,1,1.3,1.4,1.9c0.1,1.3,0.4,1.8,0.6,3.1c1,0.5,2.2,0.5,2.6,1.8l0.8-0.1c0.1-0.2,0.3-0.3,0.4-0.5
	c0-1,0.2-1.7,0.4-2.6c0.8-0.7,0.7-2.1,1.7-2.2c0.1,0,0.4,0.1,0.5,0c0.3-0.2,0.4-0.8,0.7-1.1c0.4-0.4,0.9-0.4,1.2-0.7
	c0.1-0.3,0.1-0.6,0.3-0.7c1.8,0,3-1.1,4.3-1.9C66.6,45.9,66.3,45.5,66.2,45.4z M86.2,132.9c-16.3,0-31.1-6.7-41.8-17.5l-4.7,4.7
	c11.9,12,28.3,19.4,46.5,19.4c21.2,0,40-10.1,52-25.7l-4.7-4.7C122.7,123.5,105.5,132.9,86.2,132.9z M137.1,44.4
	c5.1,8.7,8,18.8,8,29.6c0,10.7-2.9,20.8-7.9,29.4l4.8,4.8c6.1-10,9.7-21.7,9.7-34.3c0-12.6-3.6-24.4-9.8-34.4L137.1,44.4z
	 M50.3,60.3c-0.1-0.1-0.4,0-0.5,0c-0.3-0.7-0.7-0.9-1.1-1.3c-0.6-1.7-0.8-3.4-2.3-3.6c-0.2,0.7-0.1,1.5-1,1.7
	c-0.8-0.5-0.6-1.9-1.2-2.6c-0.3-0.3-0.9-0.4-1.2-0.7c-0.2-0.1-0.2-0.4-0.4-0.5c-0.9,0.2-1.4-0.4-2.3,0.1c-0.2,0.5,0,0.8,0.2,1.2
	c0.4,1.9-0.1,2.7,0.4,4.2c-0.3,1-1.4,1.7-0.6,3.2c-0.3,0.2-0.1,1.1-0.6,1.1c-0.7,0-0.9-2.1-1.2-3.1c-0.5-0.3-1.1-0.8-1.8-1.3
	c-1.4,4.7-2.2,9.8-2.2,15c0,2.1,0.1,4.1,0.4,6.1c0.4,0,0.9,0,1.4,0.1c0.2-0.1,0.2-0.4,0.3-0.6c0.8-0.4,1.4,0.4,2.3,0.2
	c0,0.2,0.2,0.1,0.2,0.2c0.4,1.2,1,2,1.6,2.6c0.5-1.1-0.5-2.2-0.6-3.5c0.2-0.5,0.3-0.6,0.4-1.2c1.3-0.6,2.3-2,1.7-3.9
	c0.3-0.1,0.4,0.1,0.6-0.1c0-0.2,0-0.4,0.1-0.6c0.3-1.1,1.4-1.5,1.9-2.4c0.1-0.2-0.1-0.4-0.1-0.8c1.3,0,1.3-1.5,2.5-1.5
	c0.4-0.3,0.1-1.4,0-1.7c0.2-0.7,0.8-0.8,0.8-1.7c-1.1-0.1-2,0.9-3.1,1c0.7-0.2,1-1.2,1.7-1.5c0.9-0.3,1.9,0.3,2.6-0.1
	c0.3-0.2,0.5-0.6,0.8-0.7c0.5-0.2,1-0.3,1.2-1.1c0.1-0.4,0-1.1-0.2-1.3c-0.4-0.1-0.8,0.1-1.1-0.1C49.9,60.7,50.3,60.7,50.3,60.3z
	 M50.1,66.6c0.7-0.1,1.1,0.1,1.6,0.6c0.5-0.3,1,0,1.4-0.2c-0.4-0.6-0.3-2.3-1.2-1.9c-0.3-0.3-0.3-0.8-0.1-1.1
	C50.7,62.9,50,65.1,50.1,66.6z M86.2,15c19.3,0,36.5,9.3,47.2,23.7l4.7-4.7c-12-15.6-30.8-25.6-51.9-25.6c-15.5,0-29.8,5.4-41,14.5
	l4.7,4.7C59.9,19.7,72.5,15,86.2,15z M63,105.6c0.8-0.2,0.7-1.4,0.9-2.2c-0.1-0.4-0.3-0.6-0.4-0.9c-0.7-0.3-1.4-0.9-2-1.3
	c-0.9-0.4-1.3-1.1-2.1-0.8c-0.8-0.6-1.7-1-2.5-1.6c-0.5,0.1-0.8,0.4-1.3,0.4c0.1-0.6,0.4-1,0.6-1.4c-0.2-0.8-0.6-1-0.9-1.6
	c-1.1-0.2-1.9-1.6-3.2-1.9c-0.2-0.4-0.5-0.5-0.7-0.9c-0.2,0-0.3-0.1-0.4-0.1c-0.5-1-1.3-1.1-2-1.3c-0.6,0.5-0.7,0.1-1.4-0.1
	c-0.2-0.1-0.5,0-0.6-0.1c-0.4-0.2-0.4-0.6-0.7-0.6c-0.4,0.1-0.4,1.1-0.9,0.9c0-0.3-0.1-0.8-0.2-1.2c-0.6,0.1-0.8,1-1.4,1.4
	c-0.4-0.1-0.8,0.2-1.1,0.5c-0.2-0.1-0.3-0.5-0.5-0.5c-1.1,0-2.2,0.1-2.4-1c-0.1-0.5,0.4-1.6,0-2.5c-0.3-0.1-0.4-0.5-0.7-0.7
	c-0.5-0.3-1.3,0.2-1.7-0.5c-0.4-1.2,0.3-1.6,0.2-2.7c-0.7-0.7-1.6-0.2-1.7,0.7c0.4,1.6,0.8,3.2,1.4,4.7c0.1,0,0.1,0,0.2,0
	c0.5,0.2,0.7,1,1,1.5c0.1,0.2,0.5,0.4,0.8,0.7c0.7,0.8,1.7,1.9,2.6,1c1,0.7,1.2,1.6,0.9,2.7c0,0.1-0.6,1.7-0.8,1.9
	c-0.2,0.2-0.2,0-0.3,0.2c-0.1,0.3,0.2,1.2,0.2,1.6c0,0.1,0,0.2,0,0.2c1,1.7,2.1,3.3,3.3,4.9c0.2-2.4,2.2-4.4,4.7-4.4
	c2.6,0,4.7,2.1,4.7,4.7s-2.1,4.7-4.7,4.7c0,0-0.1,0-0.1,0l-0.1,0.1c2.6,2.6,5.4,4.9,8.5,6.9c0-0.4-0.1-0.9-0.2-1.3
	c0.2-0.6,0.7-0.9,1-1.5c1-0.3,1.7-0.9,2.7-1.3c0.2-1.4,0.3-3,0.8-4c0-0.6,0-1.2-0.2-1.9c0.3-0.1,0.5-0.3,0.8-0.5
	C62.9,106.2,63,105.9,63,105.6z M39.8,54.5c0.2-0.4,0-1.1-0.4-1.3l-0.1,0C39.4,53.9,39.5,54.4,39.8,54.5z M46.2,86.4
	c-0.4-0.5-2.1-0.9-2,0.4c0.5,0.2,0.9,0.2,1.4,0.3c0.1-0.2,0-0.3,0.1-0.6C45.8,86.4,46.1,86.6,46.2,86.4z M39,84.3
	c0.9,0.7,2.6,0.4,3.5,1.6c0.7,0,0.9-0.2,1.4-0.4c-0.8-0.8-2-1.1-3.1-1.5C40.2,83.8,39.1,83.1,39,84.3z M49.8,107.3c1.1,0,2-0.9,2-2
	c0-1.1-0.9-2-2-2s-2,0.9-2,2c0,0.3,0.1,0.6,0.2,0.8l-15,15h-6.1c-0.4,0-0.7,0.3-0.7,0.7c0,0.4,0.3,0.7,0.7,0.7h6.6l15.4-15.4
	C49.2,107.2,49.5,107.3,49.8,107.3z"/>
</svg>
