<?xml version="1.0" encoding="utf-8"?>
<!-- Generator: Adobe Illustrator 22.0.0, SVG Export Plug-In . SVG Version: 6.00 Build 0)  -->
<svg version="1.1" id="Layer_1" xmlns="http://www.w3.org/2000/svg" xmlns:xlink="http://www.w3.org/1999/xlink" x="0px" y="0px"
	 viewBox="0 0 126.6 102.8" style="enable-background:new 0 0 126.6 102.8;" xml:space="preserve">
<style type="text/css">
	.st0{fill:none;stroke:#FFFFFF;stroke-width:4.4557;stroke-linejoin:round;stroke-miterlimit:10;}
	.st1{fill:none;stroke:#FFFFFF;stroke-width:4.4557;stroke-linecap:round;stroke-linejoin:round;stroke-miterlimit:10;}
</style>
<g>
	<polygon class="st0" points="63.3,58.1 87.8,44.7 87.8,18 63.3,4.6 38.8,18 38.8,44.8 	"/>
	<polyline class="st1" points="45.5,22.4 63.3,31.5 81.1,22.4 	"/>
	<line class="st1" x1="63.3" y1="31.3" x2="63.3" y2="49.2"/>
	<path class="st0" d="M94.5,89.3c0-1,0.6-5,2.2-6.7c1.7-1.7,13.9-13.9,15.6-15.6c1.5-1.5,2.4-20,2.2-22.3
		c-0.1-2.2-2.8-13.6-4.5-17.8c-1.7,0-4.8,1.4-6.7,4.5c-1.8,3-1.5,6.4,0,11.1l-2.8,8.9"/>
	<path class="st0" d="M90,71.4c0,0,9.8-9.8,11.1-11.1c5.4-5.4-1.2-12.1-6.7-6.7c-1.4,1.4-2.9,2.9-6.7,6.7c-1.1,1.1-7.1,0.4-8.9,2.2
		c-0.8,0.8-4.8,4.8-6.7,6.7c-1.8,1.8-2.1,6.4-2.2,8.9c0,4.1,0,11.1,0,11.1"/>
	<polyline class="st0" points="98.9,98.2 98.9,89.3 67.7,89.3 67.7,98.2 	"/>
	<path class="st0" d="M32.1,89.3c0-1-0.6-5-2.2-6.7C28.2,80.9,16,68.6,14.3,67c-1.5-1.5-2.4-20-2.2-22.3c0.1-2.2,2.8-13.6,4.5-17.8
		c1.7,0,4.8,1.4,6.7,4.5c1.8,3,1.5,6.4,0,11.1l2.8,8.9"/>
	<path class="st0" d="M36.6,71.4c0,0-9.8-9.8-11.1-11.1c-5.4-5.4,1.2-12.1,6.7-6.7c1.4,1.4,2.9,2.9,6.7,6.7c1.1,1.1,7.1,0.4,8.9,2.2
		c0.8,0.8,4.8,4.8,6.7,6.7c1.8,1.8,2.2,6.4,2.2,8.9c0,4.1,0,11.1,0,11.1"/>
	<polyline class="st0" points="27.6,98.2 27.6,89.3 58.8,89.3 58.8,98.2 	"/>
</g>
</svg>
