<?xml version="1.0" encoding="utf-8"?>
<!-- Generator: Adobe Illustrator 22.0.0, SVG Export Plug-In . SVG Version: 6.00 Build 0)  -->
<svg version="1.1" id="Layer_1" xmlns="http://www.w3.org/2000/svg" xmlns:xlink="http://www.w3.org/1999/xlink" x="0px" y="0px"
	 viewBox="0 0 183.8 125.2" style="enable-background:new 0 0 183.8 125.2;" xml:space="preserve">
<style type="text/css">
	.st0{fill:#FFFFFF;}
</style>
<g>
	<g id="Layer_2_1_">
		<path class="st0" d="M170.3,72.2h-14c-0.8,0-1.7,0.8-2.2,1.4l-4,6.2c-0.4,0.6-0.8,1.9-0.9,2.6c-0.7,3.5-4.2,12.6-22.2,12.6
			c-22.5,0-20.5-33.3-19.8-40.6c0.1-0.8-0.2-1.9-0.7-2.5L91.3,31.3c-0.5-0.6-1.5-1.6-2.2-1.6h-8.4c-0.8,0-1.8,0-2.3-0.6L69,17.3
			c-0.5-0.6-1.5-1-2.3-1H55.5c-0.8,0-2.2,1-2.2,1.8v2.8c0,0.8,0.1,0.8-0.6,0.8h-8.4c-0.8,0-1.9-0.1-2.5-0.6L30,11.8
			c-0.6-0.5-1.7-0.8-2.5-0.8h-14c-0.8,0-1.2,0.6-1,1.4L20.1,41c0.2,0.7-0.3,1.9-1,1.9h-5.6c-0.8,0-1-0.1-0.4,0.5l9.2,9
			c0.5,0.5,1.3,1.3,1.7,1.9l15.4,25.6c0.4,0.7,1.3,0.9,2,0.6l3.1-1.5c0.7-0.3,1-1.2,0.7-1.9L26.6,31.5c-0.3-0.7,0.1-1.8,0.9-1.8h2.8
			c0.8,0,1.7,1.1,2.2,1.7l26.4,39.9c0.4,0.6,0.9,1.9,1.2,2.6l4.8,17c0.2,0.7,0.9,1.7,1.5,2.2l25.7,18c0.6,0.4,1.8,0.7,2.5,0.5
			l24.9-5.2c0.8-0.2,1.9,0,2.6,0.4l12,7.1c0.7,0.4,1.6,0.3,2.2-0.3l3.6-3.5c0.5-0.5,1.6-0.8,2.4-0.8h8.4c0.8,0,1.1-0.7,0.8-1.4
			l-1.5-3.2c-0.3-0.7-0.2-1.7,0.4-2.3l17.6-17.6c0.5-0.5,1.1-1.6,1.3-2.4l2.1-8.7C171.5,73.1,171.1,72.2,170.3,72.2z"/>
	</g>
</g>
</svg>
