<?xml version="1.0" encoding="utf-8"?>
<!-- Generator: Adobe Illustrator 22.0.0, SVG Export Plug-In . SVG Version: 6.00 Build 0)  -->
<svg version="1.1" id="Layer_1" xmlns="http://www.w3.org/2000/svg" xmlns:xlink="http://www.w3.org/1999/xlink" x="0px" y="0px"
	 viewBox="0 0 142.1 149.9" style="enable-background:new 0 0 142.1 149.9;" xml:space="preserve">
<style type="text/css">
	.st0{fill-rule:evenodd;clip-rule:evenodd;fill:none;stroke:#FFFFFF;stroke-width:4.0622;stroke-miterlimit:22.9256;}
</style>
<path class="st0" d="M88.8,117.3l17,2.5l-4.7,16.7 M74.5,8.9l-12,12.3l13.8,10.4 M105.9,119.8c-9.9,7.9-22.1,12.3-34.9,12.3
	c-26.7,0-49-18.8-54.5-43.9 M62.5,21.3c33.6-5.2,64.3,20.8,64.3,55.1c0,4-0.4,7.9-1.2,11.8 M117.5,121.3l0-14.5 M82.6,106.9l0,14.5
	 M128.2,121.3l-1.6-24.2c-0.1-1.7-1.8-3.7-3.4-4.3l-12.9-4l-9.7,8.8h-1l-9.7-8.8l-12.9,4c-1.7,0.5-3.3,2.6-3.4,4.3l-1.6,24.2
	 M88.2,63.6c0.6-6.2,5.9-9.3,11.8-9.3c5.9,0,11.3,3.1,11.8,9.3c0.3,3.2-0.4,10.9-2,13.8c-1.4,2.5-4.5,5-8,5.8
	c-1.4,0.2-2.4,0.2-3.8,0c-3.5-0.8-6.6-3.3-8-5.8C88.6,74.5,87.9,66.8,88.2,63.6L88.2,63.6z M60.4,83.6l0-14.5 M25.5,69.2l0,14.5
	 M71.2,83.6l-1.6-24.2c-0.1-1.7-1.8-3.7-3.4-4.3l-12.9-4L43.5,60h-1l-9.7-8.8l-12.9,4c-1.6,0.5-3.3,2.6-3.4,4.3l-1.6,24.2
	 M31.2,25.9c0.6-6.2,5.9-9.3,11.8-9.3c5.9,0,11.3,3.1,11.8,9.3c0.3,3.2-0.4,10.9-2,13.8c-1.4,2.5-4.5,5-8,5.8
	c-1.4,0.2-2.4,0.2-3.8,0c-3.5-0.8-6.6-3.3-8-5.8C31.6,36.8,30.9,29.1,31.2,25.9L31.2,25.9z M82.5,139.9C68,142.5,53,140.1,40,133
	c-12.5-6.8-21.8-17.1-27.5-29 M11.4,101.8c-1-2.4-1.9-4.9-2.7-7.4 M8,91.8c-0.4-1.7-0.8-3.4-1.1-5.1 M6.6,84.1
	c-0.2-1.3-0.3-2.6-0.4-3.9 M92.9,14.9c3.1,1.1,6.2,2.5,9.1,4.1c18.2,9.9,29.8,27.4,33,46.4 M135.4,68c0.4,2.8,0.5,5.7,0.5,8.6
	 M135.9,79.5c-0.1,2.4-0.4,4.9-0.8,7.3 M134.5,89.7c-0.4,1.6-0.8,3.3-1.3,4.9"/>
</svg>
