<?xml version="1.0" encoding="utf-8"?>
<!-- Generator: Adobe Illustrator 22.0.0, SVG Export Plug-In . SVG Version: 6.00 Build 0)  -->
<svg version="1.1" id="Layer_1" xmlns="http://www.w3.org/2000/svg" xmlns:xlink="http://www.w3.org/1999/xlink" x="0px" y="0px"
	 viewBox="0 0 187.6 172.8" style="enable-background:new 0 0 187.6 172.8;" xml:space="preserve">
<style type="text/css">
	.st0{fill:#00ACE5;}
</style>
<path class="st0" d="M161,40.3v6.1h23.3v-6.1H161z M131.4,59.1c-1.2,0-2.1,1-2.1,2.1c0,1.2,1,2.1,2.1,2.1c1.2,0,2.1-1,2.1-2.1
	c0-0.3-0.1-0.6-0.2-0.9l16.2-16.2h6.6c0.4,0,0.7-0.3,0.7-0.7c0-0.4-0.3-0.7-0.7-0.7H149l-16.6,16.7
	C132.1,59.2,131.8,59.1,131.4,59.1z M28.4,27.2h-19v6.1h19V27.2z M33.2,31.1h6.6L56,47.3c-0.1,0.3-0.2,0.6-0.2,0.9
	c0,1.2,1,2.1,2.1,2.1s2.1-1,2.1-2.1S59.2,46,58,46c-0.3,0-0.7,0.1-1,0.2L40.4,29.6h-7.2c-0.4,0-0.7,0.3-0.7,0.7S32.8,31.1,33.2,31.1
	z M162.1,133.3h16.1v-6.1h-16.1V133.3z M157.3,129.4h-6.6l-16.2-16.3c0.1-0.3,0.2-0.6,0.2-0.9c0-1.2-1-2.1-2.1-2.1
	c-1.2,0-2.1,1-2.1,2.1s1,2.1,2.1,2.1c0.3,0,0.7-0.1,1-0.2l16.6,16.7h7.2c0.4,0,0.7-0.3,0.7-0.7C158,129.8,157.7,129.4,157.3,129.4z
	 M3.3,141.3h16.1v-6.1H3.3V141.3z M74.1,75.9c0.7,0,1.1-0.5,1.6-0.7c0.2-0.8-0.3-1.5,0-2.2c-0.7-1.2-1.3,0.6-2,0.6
	c0.1,0.7,0.1,1.3-0.1,1.8C73.8,75.4,73.9,75.7,74.1,75.9z M76.8,69.3c-0.8-0.2-1.4,0.4-1.7,1.2c0.1,0.5,0.4,0.8,0.6,1.1
	c0.1,0.4,0,0.6,0,0.8c0.2,0.2,0.5,0.5,0.6,0.9c0.3,0,0.6,0.1,0.7,0.3c-0.2,0.1-0.1,0.4,0,0.6c-0.2,0.1-0.3,0.4-0.5,0.5
	c0.3,0.5-0.3,0.7-0.1,1.1c0.1,0.2,0.4,0,0.4,0.3c-0.1,0.6-0.8,0.4-0.8,1.1c0.2,0.3,0.5,0.2,0.9,0.2c0.6-0.6,1.4-0.5,2.3-0.7
	c0.8-0.7,0.6-2.5-0.4-2.8c-0.2-1.3-1-1.7-1.6-2.4c0.1-0.5,0.3-0.8,0.1-1.5c-0.2-0.1-0.4,0.1-0.6,0C76.9,69.6,76.9,69.6,76.8,69.3z
	 M108.1,123c-0.4-0.6-0.6-1.5-1.1-1.5c-0.6,0.1-0.3,1.3-0.8,1.6c0,0.3,0.2,0.4,0.1,0.6c-0.1,0-0.1,0.1-0.2,0.2
	c-0.9-0.1-1.2,0.8-1.5,1.7c0.4,1.4-0.2,3.1,0,4.5c0.5,0.4,0.6,1.5,1.2,1.5c0.7,0,0.8-1.5,1.2-2.2c-0.2-1.6,0.7-2.4,0.6-4.1
	C107.8,124.8,107.8,123.7,108.1,123z M121.8,42.5c0.4,0.1,0.7,0,1-0.2c-0.3-0.2-0.5-0.4-0.8-0.6C122,41.9,121.9,42,121.8,42.5z
	 M103.5,54.7c0.3,0.4,0.2,0.7,0.5,0.9c0.5-0.3,1.6,0.3,1.6-0.8c-0.1-0.2-0.2,0.1-0.4-0.1c-0.7-1.5-0.1-3,0.9-3.3
	c0.2-1.2,1.2-1.4,1.8-2c0,0.2,0.2,0,0.3,0.1c0.9-1.1,2.2-0.7,3.1-1.5c0-0.5-0.3-0.7-0.4-1.1c-0.8-0.5-1.3,0.4-1.9,0.7
	c-0.3,0.1-0.7,0-1,0.2c-0.5,0.2-1.1,0.7-1.7,1c-0.5,0.2-1.1,0-1.4,0.2c-0.3,0.2-0.4,0.8-0.6,1.2c-0.2,0.3-0.4,0.5-0.4,0.6
	c0,0,0.1,0.1,0,0.2c-0.4,0.6-0.8,0.9-0.9,1.6c0.1,0,0,0.5,0.2,0.6c-0.3,0.3-0.6,0.5-0.5,1C102.8,54.5,103.2,54.4,103.5,54.7z
	 M124.5,44.6c0.2-0.1,0.4-0.2,0.6-0.4c-0.6-0.6-1.3-1.1-2-1.7c-0.1,0.1-0.2,0.2-0.3,0.4C123.3,43.6,123.9,44.2,124.5,44.6z M142,95
	c-1-0.4-1.4,0.8-1,1.8c0.2,0.1,0.4,0.2,0.7,0.1C141.8,96.3,142.1,95.9,142,95z M141.5,102.5c0.3-1,0.6-1.9,0.8-2.9
	c0-0.1-0.1-0.1-0.1-0.2c-0.5,0-0.6,0.4-0.9,0.7c0.2,0.9,0,1.3,0,2C141.4,102.2,141.4,102.3,141.5,102.5z M137.6,60.2l-1.1,1.1
	c0,2.8-2.3,5.1-5.1,5.1c-2.8,0-5.1-2.3-5.1-5.1c0-2.8,2.3-5.1,5.1-5.1c0,0,0.1,0,0.1,0l2.3-2.3c-1.9-2.7-4-5.2-6.3-7.5
	c-0.2,0.1-0.3,0.2-0.5,0.3c-0.1,0.2,0.1,0.3,0,0.6c-0.7,0.6-2.2,0.8-3.1,0.4c-0.4,0.1-0.7,0.5-1.1,0.8c-0.9,0.6-2.3,0.6-2.7,1.4
	c-0.2,0.4,0.2,0.5,0.2,1c-0.8,0.5-2.4,0.2-3.2,0.9c-0.2,0.3,0.3,0.4,0.2,0.8c0.9,0.1,1.5,1.4,1.4,2.5c-0.3-0.6-0.6-1.1-0.9-1.6
	c-0.7-0.5-2.2-1.1-2.6,0.1c0.1,0.6,0.7,0.5,0.8,1.2c-0.3,0.2-0.8-0.1-1.1-0.3c0-0.3,0.2-0.8,0-1.2c-0.5,0-0.7,0.2-1,0.5
	c0.1,0.5,0.1,1.1-0.1,1.1c0.4,0.6,0.4,1.6,0.8,2.4c0.1-0.1,0.9-0.5,1.1,0c-0.6-0.2-0.9,0.3-1.2,0.5c0.1,0.3,0,0.7,0,1.1
	c-0.5,0.2-0.8,1.2-1.5,1c0.4-0.7,0.6-1.5,0.8-2.4c-0.2-0.7-0.6-1.4-0.6-2.1c0-0.7,0.6-1.3,0.2-2.4c-0.1-0.3-0.5-1-0.8-1.1
	c-0.5-0.2-1.4,0.9-1.6,1.3c-0.1,0.2-0.3,0.5-0.3,0.6c-0.2,1.2,0.6,2.6,0.7,3.6c-0.5,0-1-0.4-1.4-0.8c-0.5-0.2-0.9,0-1.3-0.1
	c-0.9-0.1-1.3-1.3-2.1-0.9c-0.1,0.8,0.8,0.8,0.5,1.8c-0.2,0-0.5,0-0.9-0.2c-0.7,0.9-1.2,0.1-1.7,0.2c-0.2,0-0.6,0.1-1,0.2
	c-0.5,0.1-0.9,0.6-1.3,0.9c-0.3,0.2-0.6,0.3-0.8,0.4c-0.5,0.3-0.8,1.3-1.3,0.8c-0.1-0.6,0.3-0.6,0.3-1.1c-0.4-0.5-1-1.1-1.5-0.6
	c0,1,0.2,1.7-0.3,2.3c-0.9,0.2-1.2,1.2-1.6,2c-0.3-0.2-0.5-0.1-0.8,0c-0.2,0.2-0.1,0.8-0.4,0.8c-0.3-0.1-0.3-0.4-0.4-0.7
	c-0.4-0.7-1.1-1-1.3-2c1.3,0.8,3.1,0.7,3.6-1.2c-0.4-0.6-0.8-0.5-1.3-0.8c-0.6-1.3-1.7-1.9-2.9-1.7c-0.3-0.4-0.6-0.3-0.9-0.4
	c-0.1-0.2-0.2-0.4-0.4-0.5c-0.6,0.1-1.1,0.2-1.5-0.1c-0.9,0.4-2.1,0-2.8,0.9c-0.2,0.1-0.3-0.1-0.5-0.1c-0.7,1.3-2.4,1.7-2.9,3
	c-0.9,0.3-1.6,1.5-1.4,3c-0.3,1.6-1.5,2.6-2.3,3.4c0.3,0.9,0.3,2.4,0.4,3.4c0.2,0.4,0.6,0.2,0.9,0.3c0.2,0.1,0.2,0.4,0.4,0.4
	c0.6,0.1,0.8-0.6,1.2-1c0.3,0.2,0.6,0.5,1.1,0.5c0.3,0.5,0.6,1,1.1,1.1c0.5-0.8,0.8-1.9,1-3c-0.2-0.4-0.5-0.6-0.7-1
	c-0.5-2.2,1.8-2.4,1.9-4.3c0.3-0.4,0.9-1.1,1.4-0.5c0.1,0.1,0,0.3,0.1,0.6c-0.9,1.2-2,2.3-1.4,4.7c0.4,0,0.7,0.7,1.2,0.7
	c0.5,0.1,1.1-0.4,1.6-0.4c0.1,0,0.1,0.2,0.1,0.2c0.1,0.1,0.4-0.3,0.4,0c-0.1,0-0.1,0.2-0.2,0.4c-0.6-0.1-2,0.2-1.9,0.8
	c0,0.3,0.5,0.5,0.6,0.8c0.2,1-0.5,1.2-1.2,0.7c-0.6,0.1-0.4,1.1-0.4,1.8c-0.7,0.7-1.5,0.5-2.8,0.7c-0.4-0.9-0.9-2.3-1.7-2.6
	c-0.6-0.2-1,0.3-1.4,0.7c-0.3,1.3,1.3,3.6-0.6,3.4c-0.5,0.8-1.3,1.1-1.5,2.2c-0.9,0.3-1.2,1.4-2,1.8c0-0.2-0.2-0.2-0.3-0.2
	c-0.1,0.9-1.2,0.2-1.3,1.1c0.6,0.6,1.4,1,1.8,2.1c-0.1,0.5,0,1.2-0.1,1.7c-1.1,0.2-2.9-0.3-3.8,0.6c0.2,0.7,0.3,1.4,0.3,2
	c0,0.7,0,1.5,0.2,2.4c0.6,0.4,1.2,0.8,1.9,1c0.1-0.1,0.2-0.3,0.4-0.3c1.4,0.3,2.7-0.9,2.3-2.8c0.1-0.1,0.2-0.2,0.4-0.3
	c0.6-0.5,1.1-1,1.2-2c0.7-0.2,1-0.5,1.7-0.1c0.6-0.1,1-1.1,1.7-1c0.8,0.1,1.6,1.6,1.4,2.6c0.1,0.1,0.3,0.3,0.4,0.5
	c0.3,0.6,0.5,1.4,1.3,1.2c0.2-0.3,0.3-0.7,0.1-1.1c0,0,0.1-0.1,0.1-0.1c0.1-0.1,0.3-0.1,0.3-0.4c-0.5-0.5-0.9-1.1-1-2.1
	c0.9-0.3,1.5,0.6,1.6,2c0.2,0.2,0.3,0.3,0.5,0.5c0.6,0.7,1,1.5,1.2,2.8c1-0.1,0.9-1.7,0.6-2.6c0,0,0.1-0.1,0.1-0.1
	c0.4-0.4,0.8-0.7,1.3-0.6c0,0.2,0,0.4,0,0.6c0,0.6,0.1,1,0.1,1.7c0.3,0.5,0.7,0.8,1,1.2c0.9,0,2-0.2,2.6,0.3c0.4-0.1,0.5-0.4,1-0.5
	c0.3,1.4-0.2,2.5-0.3,3.6c-0.6,0.3-1.1-0.2-1.6-0.1c-0.3,0-0.6,0.4-0.9,0.4c-1.8,0.3-3.5-2.2-5-0.6c0,0.2,0,0.6,0,0.8
	c-0.6,0.4-1.1-0.4-1.2-0.8c-0.6-0.2-1.4-0.5-2.1-0.9c0-0.8-0.1-1.1-0.2-2.3c-0.3-0.6-1.1-0.4-1.6-0.6c-0.3,0.4-1,0.4-1.4,0.1
	c-1.2,0.9-3.4,1-4.5,1.7c-0.3-0.3-0.8-0.6-1.3-0.2c-0.2,1.2-1.1,1.7-1.6,2.5l0.1,1.4c-0.2,0.4-0.5,0.6-0.7,1c-0.7,0.5-1.3,1.4-1.7,2
	c0.3,0.9-0.8,1.4-0.9,2.3c0,0.3,0.1,0.5,0.2,0.8c0.1,0.5,0.1,1.1,0.2,1.6c0.2,1,0,1.7-0.1,2.8c0,1.2,0.5,1.5,1,1.9
	c0.4,1.5,1.6,1.8,2,3.4c0.5,0.1,0.7,0.9,0.9,1.2c0.5,0.4,1.1,0.7,1.8,0.5c0.4-0.5,1.3-0.4,1.9,0c0.9-0.2,2-0.4,2.8-1.1
	c0.2,0.2,0.4,0,0.8,0c0.4,0.9,1.2,1,2.1,0.9c0.2,0.3,0.3,0.7,0.5,1c0.2,1.1-0.2,1.6-0.4,2.4c0.6,1.6,2.1,2.2,2.2,4.2
	c0.4,0.5,0.6,1,0.8,1.5c0.8,2.5-1.1,3.9-0.6,6.2c0.2,0.7,0.6,1.2,0.8,1.9c0.3,0.8,0.6,1.6,0.7,2.6c0.4,1.5,0.7,3.8,1.3,4.7
	c0.5-0.1,0.7,1.1,0.8,2c0.9,1.9,3.9,0.6,5.5,0.2c0-0.3,0.1-0.5,0.1-0.8c1.1-0.9,1.6-2.4,2.3-3.7c0-0.8-0.1-0.8-0.1-1.5
	c0.4-0.4,0.7-0.5,0.9-0.9c0.3-0.9-0.2-1.5-0.3-2.1c-0.2-0.6,0.7-1.4,1.1-2c0.2-0.3,0.6-0.8,0.8-1c1-0.8,0.7-1.8,0.5-3.5
	c-0.3-0.3-0.2-0.7-0.4-1.1c-0.3-0.8-0.9-1.3-0.8-2.4c0-0.6,0.6-2.7,0.8-3.1c0.3-0.6,1.2-1.4,1.9-2.2c0.5-0.7,0.9-1.4,1.4-2
	c0.2-1.1,0.4-2.4,0.9-3.2c-0.1-1,0.4-1.5,0.7-2.1c-1.4-0.9-2,0.7-3,0.8c-0.6,0-0.8-0.5-1.2-0.8c-0.6-0.6-1.1-0.8-1.7-1.7
	c0-0.4-0.3-0.8-0.4-1.2c-0.7-0.7-1.2-1.9-1.6-3c-0.6-1.7-1.4-3.3-1.9-4.7c0-0.1-0.3,0.1-0.3-0.2c0.7-0.6,1.2,1,1.5,1.6
	c0.6,1.2,1.5,1.2,1.4,2.6c0.4,0.6,1,1,1.4,1.6c0.6,1,0.6,2.4,0.9,3.8c1.1,1.2,2.4-0.4,3.8-0.4c0.7-1.2,1.7-2,3.2-2.4
	c0.4-1.3,1.4-1.9,1.2-3.8c-0.4-0.5-0.9-0.7-1.4-1.1c-0.3-0.5-0.5-1-1-1.1c-0.2,0.6-0.5,1.1-1,1.1c-0.6,0-0.7-0.8-1.2-1
	c-0.3-0.2-0.4,0.1-0.7-0.2c-0.2-0.3-0.1-0.7-0.1-1c-0.3-0.5-0.8-0.6-0.9-1.5c1.2-0.3,1.5,1.8,2.6,2.2c0.4,0.1,1,0,1.5-0.1
	c0.1,0.2,0.3,0.2,0.4,0.5c1.5,0.3,3.1,0.9,5,0.7c0.4,1.1,1.4,1.3,1.9,1.5c0,0.9,0.2,1.7,0.9,1.5c0.2-0.2,0.2-0.5,0.3-0.7
	c0.1,0.2,0.3,0.2,0.4,0.5c-0.1,0-0.2,0-0.2,0.1c0.4,0.6,0.3,1.6,0.4,2.1c0.1,0.6,0.4,1.2,0.3,1.9c0.8,1.9,1.2,2.5,1.8,4.2
	c0.3,0,0.3,0.3,0.6,0.4c0.3-0.3,0.7-0.6,1-1c0-1.4,0.7-2.3,0.3-4.2c1.2-1.3,2.4-2.5,3-4.4c0.8,0.1,1.3-0.2,1.6-0.6
	c0.5,1.4,2.1,2,1.7,3.9c0.4,0.8,1.5,0.8,1.9,0.2c0.3,1.1,1.1,3.1,0.8,4.6c0.2,0.4,0.4,0.8,0.6,1.3c0.3-0.1,0.7-0.1,1-0.2
	c-0.7-1-1.1-2.2-0.3-3c0.7,0.4,1.2,0.9,1.9,1.4c0.2,0.5,0.2,1,0.6,1.1c0.4-0.2,0.3-1.1,1-0.8c0.3-0.7,1-0.8,1.2-1.6
	c-0.2-1-0.5-1.8-0.8-2.8c-0.2-0.3-0.6-0.4-0.9-0.7c0.1-0.6-0.6-1.3-0.4-2.2c0.3-0.4,0.8-0.5,1.3-0.7c0.2,0.1,0.2,0.3,0.3,0.5
	c0.5-0.4,1.2-0.6,1.5-1.2c0.2-0.1,0.2,0.1,0.4,0c1-0.6,2.1-1,2.6-2.1c0-1.5,1-1.8,0.8-3.6c0-0.3-0.3-0.3-0.3-0.7
	c0-1.4-0.7-1.5-0.9-2.7c0.4-0.5,0.9-0.8,1-1.6c-0.1-1.1-1-0.7-1.8-0.7c-0.1-0.2-0.1-0.4,0-0.5c0.1-0.6,0.6-0.8,0.9-1.2
	c0.2,0.2,0.3,0.4,0.5,0.7c0.5,0.1,0.7,0,1.3,0c0.2,0.1,0.3,0.3,0.5,0.5c0.3,0.4,0.4,1,0.6,1.5c-0.4,1.2,0.2,1.7,0.9,1.6
	c0-0.9,0.1-1.7,0.1-2.6c0-0.2,0-0.3,0-0.5c0,0-0.1,0-0.1-0.1c-0.1-0.1-0.2-0.2-0.3-0.5c0.1-0.1,0.3-0.3,0.4-0.4
	C143.8,75.8,141.5,67.5,137.6,60.2z M100,84.1c-0.4,0.1-0.7,0.6-1.3,0.5c-0.4-0.1-0.7-0.7-1.2-0.9c-0.4-0.2-2.5,0-3.1,0.3
	c-0.3,0.1-0.4,0.7-0.9,0.6c0.4-0.5-0.2-0.8-0.3-1.3c0-0.4,0.2-0.6,0.4-1.1c0.4-0.8,0.4-1.7,1.1-2c0.1,0.3,0.4,0.5,0.8,0.5
	c0,0.4,0.1,0.6,0.2,0.9c0.5,0.2,0.9-0.2,1.3-0.5c0-0.4-0.2-0.4-0.2-0.8c0.4-0.3,1.2,0,1.4-0.6c0.2,0.4-0.2,0.7-0.3,1.1
	c0.5,1.3,1.4,2,2.2,2.7C100.2,83.9,99.9,83.8,100,84.1z M104.2,85.5c0-0.2,0.1-0.3,0.1-0.5c-0.1-1.6-1.5-2.3-1.5-3.9
	c0.7-0.8,2.1-1.8,3.1-1.1c-0.1,0.9-1.2,0.7-1.2,1.6c0.3,0.8,1,1.5,1.2,2.7c0.1,0.3,0,0.8,0.1,1.1c0,0,0,0,0,0H104.2z M137.4,111
	c0.1,0.3,0.1,0.6,0.1,0.9c0.4-0.7,0.7-1.4,1.1-2.1c-0.4,0.4-0.7,0.8-1.1,1.2C137.5,111,137.5,111,137.4,111z M135.5,99.7
	c0.5,0.8,1.4-0.3,1.1-1C136,98.9,135.5,98.9,135.5,99.7z M121.3,107.7c0.3,0.2,0.1,1.1,0.6,1.5c0.4,0,0.7,0.1,1-0.3
	c0-1.4-0.4-1.8-1.1-2.2C121.6,107,121.7,107.5,121.3,107.7z M47,80c0.2,1.1,1.2,0.1,1.8,0.1c0-0.3,0.2-0.8,0-1.2
	c-0.1,0-0.1-0.1-0.2-0.1C48.5,79.7,47.7,80.2,47,80z M67.9,62.6c0.5,1.9,2.2,0.7,3.2,0.6c0.1-0.6,0.3-1.1,0.9-1.2
	c0.1-0.5,0-0.9-0.1-1.6c-1.4,0.1-2.2,0.5-3.5,0.4C67.1,58.7,66.2,62.4,67.9,62.6z M46,58.4c-0.7-0.6-1.7-0.6-2.1-1.5
	c0-0.2,0.2,0.2,0.1-0.2c-0.3-1.1-1-1.5-1.5-2.3l-0.4,0c-0.7,1-1.3,2-2,3c0.1,0.2,0.4,0.4,0.4,0.7c0.1,0.5-0.3,0.8-0.1,1.4
	c0,0.2-0.4,0.2-0.5,0.3c0,0.3,0.4,0.3,0.2,0.5c-0.2,0,0,0.1,0,0.2c-0.4,0.1-1.2-0.3-1.6,0.4c0.1,1.7,1,1,2,1
	c0.3,0.5,0.8,0.8,1.2,1.3c1.3,0.3,1.9,2.2,3.3,1.6c-0.2-1-1-0.8-1.3-1.6c0.6-0.3,0.8,0.4,1.5,0.3c0.8-0.7,0.1-2-0.8-1.9
	c-0.1-0.4-0.3-0.8-0.4-1.3c0.8-0.3,1.4,0.6,2.2,0.7c0.3-0.5,0.4-1.2,0.7-1.7C46.7,58.9,46.2,58.9,46,58.4z M17.5,86.4
	c0,16.9,5.9,32.4,15.8,44.6l5.1-5.1c-8.6-10.9-13.7-24.6-13.7-39.5c0-18.8,8.2-35.7,21.1-47.4l-5.1-5.1
	C26.4,46.9,17.5,65.6,17.5,86.4z M66.7,55.5c-0.4,0.1-0.9,0.2-1.1-0.2c0.5-0.9,1.1,0.1,1.9,0c0.1-0.9-0.8-1.6-0.7-2.8
	c-0.2-0.2-0.7,0.2-0.6-0.4c0.4-0.4,0.9,0.6,1.6,0.4c0.1-0.4,0.6-0.9,0.6-1.7c0-0.3-0.2-0.6-0.2-0.9c0-0.2,0.2-0.3,0.2-0.4
	c0.2-0.7-0.2-1.1-0.3-1.6c0.3-0.1,0.7-0.3,1-0.4c-0.1-1-0.7-1.3-1.3-1.5c-0.4-1.6,0.8-2.1,1.1-3.2c1.4-0.4,2.1-1.5,2.7-2.7
	c-0.2-0.2-0.5,0-0.9,0c-0.9-1.1-3.4,0-4.2,0.4c-0.1-0.3,0.1-0.4,0-0.7c-0.2-0.3-0.6-0.2-0.8-0.4c0.5-0.1,1.1-0.1,1.2-0.5
	c-0.4-1-1.4-1.1-2-1.7c-0.3,0-0.7,0.2-0.9,0.1c-0.6-0.1-1.3-0.3-2-0.5c-2.7,1.4-5.2,3.1-7.6,4.9l1.8,1.8c0.6-0.2,1.2-0.3,1.8-0.3
	c2.8,0,5.1,2.3,5.1,5.1s-2.3,5.1-5.1,5.1c-2.8,0-5.1-2.3-5.1-5.1c0-0.6,0.1-1.2,0.3-1.7l-2.1-2.1c-1.3,1.2-2.6,2.4-3.8,3.7
	c0.9,1.1,1.4,2.6,2.3,3.6c-0.1,0.9,0.1,1.7,0.6,2.3c1.4-1.1,2.4,1.1,2.4,2.6c-0.2,0.3-0.7,0.6-0.3,1.1c-0.4,0.6-1.3,0.9-1.3,1.7
	c0,1,1.1,1.4,1.5,2c0.1,1.4,0.5,1.9,0.7,3.4c1,0.5,2.3,0.6,2.8,2l0.8-0.1c0.1-0.2,0.3-0.4,0.5-0.6c0-1.1,0.3-1.8,0.4-2.8
	c0.9-0.7,0.7-2.2,1.8-2.4c0.1,0,0.4,0.1,0.5,0c0.3-0.2,0.4-0.9,0.8-1.2c0.5-0.4,0.9-0.4,1.3-0.8c0.1-0.3,0.1-0.7,0.4-0.8
	c1.9,0,3.3-1.2,4.7-2C67.2,56.1,66.9,55.6,66.7,55.5z M88.3,150.1c-17.7,0-33.7-7.2-45.2-18.9l-5.1,5.1c12.8,12.9,30.6,21,50.3,21
	c22.9,0,43.3-10.9,56.3-27.8l-5.1-5.1C127.9,139.9,109.3,150.1,88.3,150.1z M143.4,54.4c5.5,9.4,8.6,20.3,8.6,32
	c0,11.6-3.1,22.4-8.5,31.8l5.2,5.2c6.6-10.8,10.5-23.5,10.5-37.1c0-13.6-3.9-26.4-10.6-37.2L143.4,54.4z M49.5,71.6
	c-0.1-0.1-0.4,0-0.6,0c-0.3-0.7-0.8-1-1.2-1.4c-0.6-1.8-0.9-3.6-2.5-3.9C45,67,45.1,67.9,44.1,68c-0.9-0.5-0.7-2.1-1.3-2.8
	c-0.3-0.4-0.9-0.4-1.3-0.8c-0.2-0.1-0.2-0.5-0.4-0.6c-1,0.2-1.5-0.4-2.5,0.1c-0.2,0.5,0,0.9,0.3,1.3c0.4,2.1-0.1,2.9,0.4,4.6
	c-0.3,1.1-1.5,1.8-0.6,3.5c-0.3,0.2-0.1,1.2-0.6,1.2c-0.8,0-1-2.3-1.3-3.3c-0.5-0.3-1.2-0.9-1.9-1.4c-1.6,5.1-2.4,10.6-2.4,16.2
	c0,2.2,0.1,4.5,0.4,6.6c0.5,0,1,0,1.5,0.2c0.2-0.1,0.2-0.5,0.3-0.6c0.9-0.5,1.5,0.5,2.5,0.2c0,0.2,0.2,0.1,0.2,0.2
	c0.4,1.3,1,2.1,1.8,2.9c0.5-1.2-0.5-2.3-0.6-3.8c0.2-0.5,0.3-0.7,0.4-1.3c1.4-0.7,2.5-2.1,1.8-4.2c0.4-0.1,0.4,0.1,0.6-0.1
	c0-0.2,0-0.5,0.1-0.7c0.3-1.2,1.5-1.6,2.1-2.6c0.1-0.2-0.1-0.4-0.1-0.8c1.4,0,1.4-1.6,2.7-1.7c0.4-0.3,0.2-1.5,0-1.9
	c0.2-0.7,0.9-0.9,0.8-1.9c-1.2-0.1-2.2,1-3.4,1c0.7-0.2,1.1-1.3,1.9-1.6c0.9-0.3,2,0.4,2.9-0.1c0.4-0.2,0.6-0.6,0.9-0.8
	c0.5-0.2,1.1-0.3,1.3-1.2c0.1-0.4,0-1.2-0.2-1.5c-0.4-0.1-0.9,0.1-1.2-0.2C49.1,72,49.6,72.1,49.5,71.6z M49.3,78.4
	c0.7-0.1,1.2,0.2,1.7,0.6c0.6-0.3,1.1,0,1.6-0.2c-0.5-0.7-0.3-2.5-1.3-2C51,76.5,51,76,51.2,75.6C50,74.4,49.2,76.8,49.3,78.4z
	 M88.3,22.7c20.9,0,39.4,10.1,51.1,25.6l5.1-5.1c-13-16.8-33.3-27.7-56.2-27.7c-16.8,0-32.2,5.9-44.4,15.7l5.1,5.1
	C59.9,27.8,73.5,22.7,88.3,22.7z M63.3,120.6c0.9-0.2,0.7-1.5,1-2.4c-0.1-0.4-0.3-0.6-0.4-1c-0.8-0.3-1.5-1-2.1-1.4
	c-1-0.5-1.5-1.1-2.3-0.8c-0.8-0.7-1.8-1.1-2.7-1.8c-0.6,0.1-0.9,0.4-1.4,0.4c0.1-0.7,0.4-1,0.7-1.5c-0.2-0.8-0.7-1.1-1-1.7
	c-1.2-0.3-2.1-1.8-3.4-2c-0.2-0.4-0.6-0.6-0.8-1c-0.2,0-0.3-0.1-0.5-0.1c-0.6-1-1.4-1.2-2.2-1.4c-0.7,0.5-0.7,0.1-1.5-0.2
	c-0.2-0.1-0.6-0.1-0.7-0.1c-0.4-0.2-0.4-0.7-0.8-0.6c-0.5,0.1-0.4,1.1-0.9,0.9c0-0.3-0.1-0.8-0.2-1.2c-0.7,0.1-0.9,1.1-1.6,1.5
	c-0.5-0.1-0.8,0.2-1.2,0.6c-0.2-0.1-0.3-0.5-0.6-0.5c-1.2,0-2.4,0.1-2.6-1.1c-0.1-0.6,0.4-1.7,0-2.7c-0.3-0.1-0.4-0.6-0.8-0.8
	c-0.6-0.3-1.4,0.2-1.8-0.5c-0.5-1.3,0.4-1.7,0.2-2.9c-0.8-0.8-1.7-0.2-1.9,0.8c0.4,1.7,0.9,3.4,1.5,5.1c0.1,0,0.1,0,0.2,0
	c0.6,0.2,0.8,1,1.1,1.6c0.1,0.2,0.6,0.5,0.8,0.8c0.8,0.8,1.8,2,2.8,1c1,0.8,1.3,1.7,1,2.9c0,0.1-0.7,1.8-0.9,2
	c-0.2,0.2-0.2,0-0.3,0.2c-0.1,0.3,0.2,1.3,0.2,1.8c0,0.1,0,0.2,0,0.3c1.1,1.8,2.3,3.6,3.6,5.3c0.2-2.6,2.4-4.7,5.1-4.7
	c2.8,0,5.1,2.3,5.1,5.1s-2.3,5.1-5.1,5.1c0,0-0.1,0-0.1,0l-0.1,0.1c2.8,2.8,5.8,5.3,9.2,7.4c0-0.5-0.1-1-0.3-1.4
	c0.3-0.6,0.8-1,1.1-1.6c1.1-0.4,1.8-1,2.9-1.4c0.2-1.5,0.3-3.2,0.9-4.3c0-0.7-0.1-1.3-0.2-2.1c0.3-0.1,0.6-0.3,0.8-0.5
	C63.2,121.2,63.3,120.9,63.3,120.6z M38.2,65.4c0.2-0.4,0-1.2-0.4-1.4l-0.1,0C37.8,64.7,37.9,65.3,38.2,65.4z M45.1,99.9
	c-0.4-0.5-2.2-1-2.1,0.4c0.5,0.3,1,0.2,1.5,0.3c0.1-0.2,0-0.3,0.1-0.6C44.7,99.9,45,100.1,45.1,99.9z M37.3,97.6
	c1,0.8,2.9,0.4,3.8,1.7c0.8,0,1-0.3,1.5-0.4c-0.9-0.9-2.2-1.2-3.4-1.6C38.6,97,37.5,96.2,37.3,97.6z M49,122.5c1.2,0,2.1-1,2.1-2.1
	c0-1.2-1-2.1-2.1-2.1c-1.2,0-2.1,1-2.1,2.1c0,0.3,0.1,0.6,0.2,0.9l-16.2,16.3h-6.6c-0.4,0-0.7,0.3-0.7,0.7c0,0.4,0.3,0.7,0.7,0.7
	h7.2L48,122.2C48.3,122.4,48.6,122.5,49,122.5z"/>
</svg>
