<?xml version="1.0" encoding="utf-8"?>
<!-- Generator: Adobe Illustrator 22.0.0, SVG Export Plug-In . SVG Version: 6.00 Build 0)  -->
<svg version="1.1" id="Layer_1" xmlns="http://www.w3.org/2000/svg" xmlns:xlink="http://www.w3.org/1999/xlink" x="0px" y="0px"
	 viewBox="0 0 179.6 172.8" style="enable-background:new 0 0 179.6 172.8;" xml:space="preserve">
<style type="text/css">
	.st0{fill:#00ACE5;}
</style>
<path class="st0" d="M101.5,95H73.8v4.3h27.7V95z M73.8,126.7h23.1v-4.3H73.8V126.7z M99.8,28.2h-8.7v-2.1c0-6.4-5.2-11.7-11.6-11.7
	c-6.4,0-11.6,5.2-11.6,11.7v2.1h-8.7v21.3h40.5V28.2z M85.4,28.2H73.6v-2.1c0-3.3,2.6-6,5.9-6c3.2,0,5.9,2.7,5.9,6V28.2z M106,67.6
	H73.8v4.3H106V67.6z M63.5,90.3H50.2v13.4h13.2V90.3z M130,92.1V31.9h-24.3v7.2h17.1v53c-11.6,1.8-20.5,11.8-20.5,23.8
	c0,12.1,8.9,22.1,20.5,23.8v11.4H36.1V39.1h17v-7.2H28.9v126.4H130v-18.6c11.6-1.7,20.6-11.7,20.6-23.9
	C150.6,103.8,141.7,93.8,130,92.1z M126.5,132.9c-9.4,0-17-7.6-17-17c0-9.4,7.6-17,17-17s17,7.6,17,17
	C143.5,125.3,135.9,132.9,126.5,132.9z M122.9,119.7l-5.9-5.7l-3,3.1l9,8.6l15-15l-3-3L122.9,119.7z M63.5,62.9H50.2v13.4h13.2V62.9
	z M50.2,131.1h13.2v-13.4H50.2V131.1z"/>
</svg>
