<?xml version="1.0" encoding="utf-8"?>
<!-- Generator: Adobe Illustrator 22.0.0, SVG Export Plug-In . SVG Version: 6.00 Build 0)  -->
<svg version="1.1" id="Layer_1" xmlns="http://www.w3.org/2000/svg" xmlns:xlink="http://www.w3.org/1999/xlink" x="0px" y="0px"
	 viewBox="0 0 179.6 172.8" style="enable-background:new 0 0 179.6 172.8;" xml:space="preserve">
<style type="text/css">
	.st0{fill:#00ACE5;}
</style>
<path class="st0" d="M116.3,111.7h-14.7c-0.8,0-1.4,0.6-1.4,1.4c0,0.8,0.6,1.4,1.4,1.4h14.7c0.8,0,1.4-0.6,1.4-1.4
	C117.7,112.4,117,111.7,116.3,111.7z M85.8,93.2c0,0-1.7,4.4-1.7,4.4l2.7,3.9h6l2.7-3.9c0-0.1-1.7-4.4-1.7-4.4
	C93.6,93.3,86,93.3,85.8,93.2z M157,154.4h-13.8c1.4-1.7,3.1-3.8,5.3-6.6c0.5-0.6,0.8-1.4,0.8-2.2c0-36.5-21.1-55.6-21.9-56.4
	c-0.4-0.4-0.9-0.7-1.5-0.8l-16.7-4.2l-3.7-4.3c2.3-3.4,4.1-7.4,5.4-11.8c0.3-0.3,0.7-0.6,1-1c0.5,1.5,2,2.7,3.8,2.7
	c2.2,0,4-1.7,4-3.8v-1.7c0.4,0.3,0.8,0.5,1.3,0.5c1,0,1.9-0.7,2-1.7h0.1V42.4c0-17.2-14.7-31.2-32.9-31.2s-32.9,14-32.9,31.2v16.9
	c-2.5,1.6-3.9,4.2-3.9,6.3c-0.1,3.1,0.9,5.7,3.1,7.9c3.6,3.7,10.2,5.9,20.6,6.7c0.7,0.7,1.7,1.1,2.7,1.1h7c2.1,0,3.8-1.6,3.8-3.6
	c0-2-1.7-3.6-3.8-3.6h-7c-1.4,0-2.6,0.7-3.2,1.7c-8.7-0.8-14.3-2.6-17.1-5.4c-1.3-1.3-1.9-2.9-1.8-4.8c0-0.3,0.2-0.9,0.6-1.4
	c0.4,0.3,0.8,0.5,1.3,0.5c0.5,0,1-0.2,1.3-0.5V66c0,2.1,1.8,3.8,4,3.8c1.6,0,2.9-0.9,3.6-2.1c0.3,0.3,0.5,0.5,0.8,0.8
	c0.6,1.9,1.2,3.8,2,5.5c1.1,0.2,2.3,0.4,3.5,0.5c0.8-1.1,2.1-2,3.5-2.3c-2.6-5.4-4-12.5-4-19.3c11.7-1.2,19.5-6.8,23.8-11
	c1.7,3,4.8,5.5,7.8,7.3c0.1,1.1,0.2,2.2,0.2,3.4c0,13.8-6,28.6-15,29.5c-1.1,0.9-2.5,1.5-4.1,1.5h-7c-2,0-3.8-0.9-4.9-2.3
	c-0.5-0.1-1-0.1-1.6-0.2l-2.7,3.2l-16.7,4.2c-0.6,0.1-1.1,0.4-1.5,0.8c-0.9,0.8-21.9,19.9-21.9,56.4c0,0.9,0.3,1.7,0.9,2.4
	c2.4,2.7,4.3,4.8,5.8,6.5H22.6c-2,0-3.6,1.6-3.6,3.6c0,2,1.6,3.6,3.6,3.6H157c2,0,3.6-1.6,3.6-3.6C160.6,156,159,154.4,157,154.4z
	 M89.4,20.8C69.6,20.8,65.5,35.5,65,45c-0.1,0-0.1,0-0.2,0c-0.1,0-0.3,0-0.4,0v-2.6c0-13.3,11.5-24.1,25.7-24.1
	c14.2,0,25.7,10.8,25.7,24.1V45c-0.1,0-0.1,0-0.2,0c-0.2,0-0.4,0-0.6,0.1C114.8,29.9,103.5,20.8,89.4,20.8z M134.2,154.1
	c-0.1,0.1-0.2,0.2-0.3,0.3h-3.3v-31H126v-10.7c0-2-1.6-3.6-3.6-3.6c-2,0-3.6,1.6-3.6,3.6v10.7h-25l-1.2-19.7H87l-1.2,19.7h-25v-10.7
	c0-2-1.6-3.6-3.6-3.6c-2,0-3.6,1.6-3.6,3.6v10.7H49v31H47c-0.1-0.1-0.3-0.3-0.4-0.4c-0.9-0.9-5.1-5.4-9-9.8
	c0.5-29,15.8-45.9,18.9-49.1l16.9-4.2c0.7-0.2,1.4-0.6,1.9-1.2l3.9-4.5c3.1,2.5,6.7,4,10.9,4c4,0,7.6-1.4,10.6-3.9l3.8,4.5
	c0.5,0.6,1.1,1,1.9,1.2l16.8,4.2c3.2,3.2,18.5,20.1,19,49.2C138.6,148.6,135,153.2,134.2,154.1z"/>
</svg>
