<?xml version="1.0" encoding="utf-8"?>
<!-- Generator: Adobe Illustrator 22.0.0, SVG Export Plug-In . SVG Version: 6.00 Build 0)  -->
<svg version="1.1" id="Layer_1" xmlns="http://www.w3.org/2000/svg" xmlns:xlink="http://www.w3.org/1999/xlink" x="0px" y="0px"
	 viewBox="0 0 171.6 163.8" style="enable-background:new 0 0 171.6 163.8;" xml:space="preserve">
<style type="text/css">
	.st0{fill:#00ACE5;}
</style>
<path class="st0" d="M64.2,85.6l6.6,15c1.5-1.1,3.2-2,4.9-2.8c0.5-0.2,1-0.4,1.4-0.5L45.5,25.1l-22.2-4.7c-1.9-0.4-3.8,0.8-4.2,2.8
	c-0.4,1.9,0.8,3.8,2.8,4.2l18.6,3.9L48,48.6c-0.1,0.2-0.2,0.4-0.3,0.7l-6.6,16.5l20.4,46.6c1.1-2.7,2.7-5.2,4.6-7.4L58.7,88
	L64.2,85.6z M48.9,65.6l3.1-7.9L61.4,79l-5.5,2.4L48.9,65.6z M140.8,96.4l-30.1,13.2c0.4,0.8,0.8,1.5,1.2,2.3c1.3,2.9,2,5.8,2.2,8.8
	l11.2-4.9l-1.7-4l20.2-8.9c1.8-0.8,2.6-2.9,1.8-4.7C144.7,96.4,142.6,95.6,140.8,96.4z M152.3,79.8l-24.4-55.5
	c-0.8-1.8-2.9-2.6-4.7-1.8L67.6,46.8c-0.9,0.4-1.6,1.1-1.9,2c-0.3,0.9-0.3,1.9,0.1,2.7l19.4,44.1c0.5,0,1.1-0.1,1.6-0.1
	c2.2,0,4.4,0.3,6.5,0.8L73.8,51.9l17.6-7.7l1.6,3.6l13.8-6.1l-1.6-3.6l17.6-7.7l21.5,49l-17.6,7.7l-1.4-3.1l-13.7,6l1.4,3.1
	l-13.1,5.8c2.4,1.3,4.6,3,6.5,5l9.5-4.2l0,0.1l13.7-6l0-0.1l20.9-9.2c0.9-0.4,1.6-1.1,1.9-2C152.7,81.7,152.7,80.7,152.3,79.8z
	 M78.5,104.1c-10.4,4.6-15.1,16.7-10.5,27.1c4.6,10.4,16.7,15.1,27.1,10.6c10.4-4.6,15.1-16.7,10.6-27.1
	C101,104.3,88.9,99.5,78.5,104.1z M90.4,131.1c-4.5,2-9.8-0.1-11.7-4.6c-2-4.5,0.1-9.8,4.6-11.7c4.5-2,9.8,0.1,11.7,4.6
	C96.9,123.8,94.9,129.1,90.4,131.1z"/>
</svg>
