<?xml version="1.0" encoding="utf-8"?>
<!-- Generator: Adobe Illustrator 22.0.0, SVG Export Plug-In . SVG Version: 6.00 Build 0)  -->
<svg version="1.1" id="Layer_1" xmlns="http://www.w3.org/2000/svg" xmlns:xlink="http://www.w3.org/1999/xlink" x="0px" y="0px"
	 viewBox="0 0 179.6 172.8" style="enable-background:new 0 0 179.6 172.8;" xml:space="preserve">
<style type="text/css">
	.st0{fill:#00ACE5;}
</style>
<g>
	<g>
		<path class="st0" d="M54.5,98.2l32.6,18.4c0.8,0.5,1.8,0.7,2.7,0.7c0.9,0,1.9-0.2,2.7-0.7l32.6-18.4c1.7-1,2.8-2.8,2.8-4.8V60
			c0-2-1-3.8-2.7-4.8L92.6,36.4c-1.7-1-3.8-1-5.5,0L54.5,55.3c-1.7,1-2.7,2.8-2.7,4.8v33.4C51.7,95.4,52.8,97.2,54.5,98.2z
			 M62.8,68.2l6.1,3.4v12.5l9.9,5.7V77.2l6.6,3.7v22L62.8,90.2V68.2z M94.2,102.9V81l22.6-12.8v22L94.2,102.9z M89.8,47.5l22.6,13.1
			L89.8,73.3l-6.7-3.8l9.1-5.3l-9.9-5.7l-9.1,5.3l-5.8-3.3L89.8,47.5z"/>
		<path class="st0" d="M165.9,136h-5V71.9c0-6.7-4.5-12.3-10.6-13.8c-0.7-0.3-1.4-0.4-2.2-0.4h-13.7v11h12.5c1.7,0,3,1.4,3,3.2V136
			H29.6V71.9c0-1.8,1.3-3.2,3-3.2h12.5v-11H32.6c-7.7,0-14,6.4-14,14.3V136h-5c-3,0-5.5,2.5-5.5,5.5v9.9c0,7.3,6.4,13.3,14.3,13.3
			h134.8c7.9,0,14.3-6,14.3-13.3v-9.9C171.5,138.5,169,136,165.9,136z M78.8,153.7v-6.6h22.1v6.6H78.8z M19.2,151.4v-4.4h5h48v6.6
			H22.4C20.5,153.7,19.2,152.5,19.2,151.4z M160.4,151.4c0,1.1-1.3,2.3-3.2,2.3h-49.8v-6.6h48h5V151.4z"/>
		<path class="st0" d="M61.5,26.8l3.7-3.7v12.8H74V23.1l3.7,3.7c0.9,0.9,2,1.3,3.1,1.3c1.1,0,2.3-0.4,3.1-1.3c1.7-1.7,1.7-4.5,0-6.2
			L72.7,9.3c-1.7-1.7-4.5-1.7-6.2,0L55.2,20.6c-1.7,1.7-1.7,4.5,0,6.2C57,28.5,59.8,28.5,61.5,26.8z"/>
		<path class="st0" d="M106.6,34.6c0.9,0.9,2,1.3,3.1,1.3c1.1,0,2.3-0.4,3.1-1.3l11.2-11.2c1.7-1.7,1.7-4.5,0-6.2
			c-1.7-1.7-4.5-1.7-6.2,0l-3.7,3.7V8h-8.8v12.8l-3.7-3.7c-1.7-1.7-4.5-1.7-6.2,0c-1.7,1.7-1.7,4.5,0,6.2L106.6,34.6z"/>
		<rect x="85.9" y="123.9" class="st0" width="30.9" height="6.6"/>
		<rect x="62.8" y="123.9" class="st0" width="16.6" height="6.6"/>
	</g>
</g>
</svg>
