<?xml version="1.0" encoding="utf-8"?>
<!-- Generator: Adobe Illustrator 22.0.0, SVG Export Plug-In . SVG Version: 6.00 Build 0)  -->
<svg version="1.1" id="Layer_1" xmlns="http://www.w3.org/2000/svg" xmlns:xlink="http://www.w3.org/1999/xlink" x="0px" y="0px"
	 viewBox="0 0 179.6 172.8" style="enable-background:new 0 0 179.6 172.8;" xml:space="preserve">
<style type="text/css">
	.st0{fill:#00ACE5;}
</style>
<path class="st0" d="M150.6,35.2c-6.1-2.4-12.9,0.7-15.3,6.7l-2.1,5.5l-2.3,5.8V21.9c0-2-1.6-3.6-3.6-3.6H25c-2,0-3.6,1.6-3.6,3.6
	v128.9c0,2,1.6,3.6,3.6,3.6h102.3c2,0,3.6-1.6,3.6-3.6v-14.7c0-2-1.6-3.6-3.6-3.6c-2,0-3.6,1.6-3.6,3.6v11.1H28.6V25.5h95.2v46.1
	l-16.4,42.2l3,19.6H74.2v4.3h36.8V137l18.3-14.7l26-66.8h0l2-5.1C159.7,44.4,156.7,37.6,150.6,35.2z M116.7,123.4l-0.6-0.2l-1.1-7.4
	l7.6,3L116.7,123.4z M125.1,113.5l-8.7-3.4l13.8-35.6c0.3-0.4,0.5-0.9,0.6-1.5l6.6-16.9l8.7,3.4L125.1,113.5z M150.7,47.9l-2,5.1
	l-8.7-3.4l2-5.1c0.9-2.4,3.6-3.6,6-2.6C150.4,42.8,151.6,45.5,150.7,47.9z M42.7,119.5h61.4v-4.3H42.7V119.5z M42.7,64.8h68.2v-4.3
	H42.7V64.8z M42.7,101.3h61.4V97H42.7V101.3z M42.7,83.1h68.2v-4.3H42.7V83.1z M42.7,42.3v4.3h35.8v-4.3H42.7z"/>
</svg>
