<?xml version="1.0" encoding="utf-8"?>
<!-- Generator: Adobe Illustrator 22.0.0, SVG Export Plug-In . SVG Version: 6.00 Build 0)  -->
<svg version="1.1" id="Layer_1" xmlns="http://www.w3.org/2000/svg" xmlns:xlink="http://www.w3.org/1999/xlink" x="0px" y="0px"
	 viewBox="0 0 171.6 163.8" style="enable-background:new 0 0 171.6 163.8;" xml:space="preserve">
<style type="text/css">
	.st0{fill:#00ACE5;}
</style>
<path class="st0" d="M66.5,86.8L42,86.7L19.4,54.8c0,0,0-0.1,0-0.2l1.4-2c1.1-1.6,0.7-3.9-0.9-5c-1.6-1.1-3.9-0.7-5,0.9l-1.4,2
	c-0.9,1.3-1.3,2.7-1.3,4.3c0,1.5,0.5,3,1.4,4.2l22.7,31.9c1.4,1.9,3.6,3.1,5.9,3.1l24.4,0c0,0,0,0,0,0c2,0,3.6-1.6,3.6-3.6
	C70.1,88.4,68.5,86.8,66.5,86.8z M69.9,44.2l-6.4,0l0.1,20.9l6.4,0L69.9,44.2z M60.8,44.2l-4.3,0l0.1,20.9l4.3,0L60.8,44.2z
	 M111,85.9c0,1.8,1.6,3.7,5,3.7c3.1,0,5.2-1.6,5.2-4.1c0-1.7-1.2-2.8-2.5-3.3v-0.1c1.3-0.7,1.9-1.8,1.9-2.9c0-1.6-1.3-3.4-4.4-3.4
	c-2.7,0-4.7,1.5-4.7,3.8c0,1.2,0.6,2.3,1.9,2.9v0.1C111.9,83.1,111,84.3,111,85.9z M116,77.9c1.2,0,1.6,0.8,1.6,1.6
	c0,0.8-0.6,1.5-1.4,1.7c-1.1-0.3-1.9-0.9-1.9-1.8C114.4,78.6,114.9,77.9,116,77.9z M115.8,83.6c1.2,0.3,2.1,1,2.1,2.2
	c0,0.9-0.7,1.7-1.8,1.7c-1.2,0-1.9-0.9-1.9-1.9C114.2,84.6,114.8,83.8,115.8,83.6z M139.8,59.1c-0.8-1.4-1.8-2.8-2.8-4v36.5
	C144.3,82.7,145.9,69.7,139.8,59.1z M89.2,77.6l0.5,2.4l2.6-1.2h0v10.6h3V76h-2.6L89.2,77.6z M108,100.8c7.3,2,14.9,0.9,21.4-2.8
	c0.5-0.3,0.9-0.6,1.3-0.9h-31C102.2,98.7,105,100,108,100.8z M104.5,89.6c3.4,0,5.1-2.8,5.1-7c0-3.7-1.4-6.9-5-6.9
	c-3.5,0-5.1,3.1-5.1,6.9C99.6,86.5,101.1,89.6,104.5,89.6z M104.6,78.1c1.3,0,1.9,1.6,1.9,4.5c0,3.1-0.7,4.6-1.9,4.6
	c-1.2,0-2-1.5-1.9-4.5C102.7,79.6,103.5,78.1,104.6,78.1z M120.8,72.9l-0.1-27.4c-3.7-0.7-7.5-0.7-11.2,0l0.1,27.4L120.8,72.9z
	 M105.2,46.8c-1.4,0.5-2.8,1.2-4.1,1.9c-5.7,3.3-9.8,8.4-12.1,14.1l0.1,10.1l16.1,0L105.2,46.8z M148.8,106.8l-2.1,1.2l-3.2-5.6
	c12.9-12.6,16.2-32.9,6.8-49.3c-4.4-7.7-11-13.6-19-17l-0.1-13.3c0-4-3.3-7.3-7.3-7.3l-82.1,0c-2.4,0-4.6,1.2-5.9,3.1l-5.7,8.1
	c-2.9-4.6-7.4-9.8-12.5-10.9c-3.3-0.8-6.3,0.1-8.9,2.5c-2.8,2.6-4,5.9-3.4,9.4c1.8,11.7,22.9,23.3,29.6,26.7c0,0.1,0,0.3,0,0.4
	c0,4.5,3.7,8.2,8.1,8.2c4.5,0,8.1-3.7,8.1-8.2c0-4.5-3.7-8.2-8.1-8.2c-1.7,0-3.3,0.6-4.7,1.5c-10.5-5.3-24.9-15.2-25.9-21.5
	c-0.1-0.8-0.1-1.9,1.3-3.1c0.9-0.9,1.6-0.9,2.4-0.8c3.2,0.8,7.5,6.4,9.7,10.5c-0.8,1.6-0.3,3.5,1.1,4.5c1.6,1.1,3.9,0.7,5-0.9
	l10-14.2l82.1,0c0.1,0,0.1,0.1,0.1,0.2l0,11c-9.9-2.3-20.2-0.7-29.1,4.4c-7.2,4.2-12.7,10.3-16.1,17.3l0-11.3l-2.7,0l0.1,18.5
	c-2.7,10.1-1.6,21.2,4,31c5.4,9.4,14.1,16.1,24.6,18.9c3.5,0.9,7,1.4,10.5,1.4c4.5,0,9-0.8,13.2-2.3l2.9,5.1l-2,1.1l5.2,9l19.3-11.2
	L148.8,106.8z M131.9,102.3c-7.7,4.5-16.6,5.6-25.2,3.3c-8.6-2.3-15.8-7.8-20.2-15.6c-9.2-16-3.7-36.5,12.2-45.7
	c5.1-3,10.8-4.5,16.6-4.5c2.9,0,5.8,0.4,8.6,1.1c8.6,2.3,15.8,7.8,20.2,15.6C153.3,72.6,147.8,93.1,131.9,102.3z M137.7,113.2
	l-2.6-4.5c0.1-0.1,0.3-0.1,0.4-0.2c0.8-0.5,1.6-1,2.4-1.5l2.6,4.6L137.7,113.2z M155.4,118.2l-19.3,11.2l10.9,19l19.3-11.2
	L155.4,118.2z"/>
</svg>
