<?xml version="1.0" encoding="utf-8"?>
<!-- Generator: Adobe Illustrator 22.0.0, SVG Export Plug-In . SVG Version: 6.00 Build 0)  -->
<svg version="1.1" id="Layer_1" xmlns="http://www.w3.org/2000/svg" xmlns:xlink="http://www.w3.org/1999/xlink" x="0px" y="0px"
	 viewBox="0 0 376.5 144" style="enable-background:new 0 0 376.5 144;" xml:space="preserve">
<style type="text/css">
	.st0{fill:#FFFFFF;}
</style>
<g>
	<path class="st0" d="M161.5,124.4c-0.2-0.2-0.4-0.2-0.7-0.3c-0.8-0.4-1.5-1.1-1.7-2c-0.3-1.2-0.1-1.3,1-1.3c0.4,0,0.8,0,1.2,0
		c0.4,0,0.7,0,0.7,0.5c0,0.3,0.3,0.4,0.5,0.4c2.6,0,5.1,0,7.7,0c0.7,0,0.5-0.5,0.6-0.9c0-0.5,0-0.8-0.6-0.8c-2.5,0-5.1,0-7.6,0
		c-0.9,0-1.7-0.2-2.4-0.7c-1.1-0.9-1.5-2.7-1-4.3c0.4-1.2,1.6-2,3-2c2.8,0,5.6,0,8.4,0c1.7,0,3,1.3,3.1,3c0,0.4-0.1,0.7-0.6,0.6
		c-0.5,0-1,0-1.4,0c-0.5,0-1,0.2-1-0.7c0-0.3-0.4-0.2-0.6-0.2c-2.5,0-4.9,0-7.4,0c-0.6,0-0.7,0.2-0.7,0.7c0,0.5,0,0.9,0.7,0.9
		c2.4,0,4.9,0,7.3,0c0.7,0,1.4,0,2,0.4c1.2,0.6,1.7,1.6,1.7,2.9c0,1.5-0.3,2.7-1.6,3.4c-0.2,0.1-0.5,0.1-0.7,0.4
		C168.1,124.4,164.8,124.4,161.5,124.4z"/>
	<path class="st0" d="M237.4,124.4c-0.2-0.3-0.6-0.3-0.8-0.5c-0.9-0.6-1.5-1.4-1.5-2.5c0-1.8,0-3.5,0-5.3c0-1.8,1.3-3,3.1-3
		c2.9,0,5.7,0,8.6,0c1.7,0,3,1.4,3,3c0,0.4-0.1,0.6-0.6,0.6c-0.6,0-1.1,0-1.7,0c-0.4,0-0.7,0.1-0.7-0.5c0-0.4-0.3-0.4-0.5-0.4
		c-2.6,0-5.1,0-7.7,0c-0.4,0-0.6,0.1-0.6,0.5c0,1.6,0,3.3,0,4.9c0,0.4,0.1,0.6,0.5,0.6c2.6,0,5.1,0,7.7,0c0.8,0,0.6-0.5,0.6-0.9
		c0-0.4,0-0.7-0.6-0.7c-1.5,0-3.1,0-4.6,0c-0.5,0-0.7-0.1-0.7-0.6c0-2.1,0-2.1,2-2.1c2,0,4,0,6.1,0c0.5,0,0.7,0.1,0.7,0.7
		c0,1,0,2.1,0,3.1c0.1,1.5-0.7,2.5-2.1,3c-0.1,0.1-0.3,0-0.3,0.2C244,124.4,240.7,124.4,237.4,124.4z"/>
	<path class="st0" d="M265.1,124.4c-0.1-0.3-0.4-0.2-0.6-0.4c-1-0.6-1.7-1.4-1.7-2.6c0-1.8,0-3.5,0-5.3c0-1.8,1.3-3,3-3
		c2.8,0,5.7,0,8.5,0c1.8,0,3.1,1.3,3.1,3c0,0.5-0.1,0.6-0.6,0.5c-0.5,0-1,0-1.5,0c-0.4,0-0.9,0.2-0.9-0.6c0-0.3-0.3-0.3-0.5-0.3
		c-2.6,0-5.1,0-7.7,0c-0.4,0-0.6,0.2-0.6,0.6c0,1.6,0,3.1,0,4.7c0,0.5,0.1,0.6,0.6,0.6c2.5,0,5.1,0,7.6,0c0.8,0,0.5-0.5,0.6-0.9
		c0-0.4,0-0.8-0.6-0.7c-1.5,0-3.1,0-4.6,0c-0.5,0-0.7-0.1-0.7-0.7c0-2.1,0-2.1,2-2.1c2.1,0,4.1,0,6.2,0c0.6,0,0.7,0.2,0.7,0.7
		c0,0.8-0.1,1.6,0,2.4c0.2,2-0.6,3.3-2.4,4C271.7,124.4,268.4,124.4,265.1,124.4z"/>
	<path class="st0" d="M84.8,124.4c0-2.6,0-5.3,0-7.9c0-2.2,1.2-3.4,3.4-3.4c2.6,0,5.3,0,7.9,0c2.2,0,3.4,1.2,3.4,3.4
		c0,2.6,0,5.3,0,7.9c-1,0-1.9,0-2.9,0c0-1.3,0-2.5-0.1-3.8c0-0.4,0-0.6-0.5-0.6c-2.6,0-5.2,0-7.8,0c-0.4,0-0.5,0.1-0.5,0.5
		c0,1.3-0.1,2.6,0.1,3.9C86.9,124.4,85.9,124.4,84.8,124.4z M92.1,117.3c1.3,0,2.6,0,3.9,0c0.6,0,0.7-0.2,0.6-0.7
		c0-0.4,0.2-0.9-0.6-0.9c-2.5,0-5.1,0-7.6,0c-0.7,0-0.6,0.5-0.6,0.9c0,0.5,0.1,0.7,0.7,0.7C89.7,117.3,90.9,117.3,92.1,117.3z"/>
	<path class="st0" d="M130.4,124.4c-0.6-0.4-1.3-0.6-1.7-1.2c-0.4-0.6-0.6-1.2-0.6-1.9c0-1.7,0-3.4,0-5.1c0-1.8,1.2-3.1,3-3.1
		c2.9,0,5.8,0,8.7,0c1.8,0,3,1.3,3,3.1c0,1.6,0,3.3,0,4.9c0,1.6-0.7,2.6-2.1,3.2c-0.1,0-0.2,0-0.2,0.2
		C137,124.4,133.7,124.4,130.4,124.4z M135.5,115.7c-1.3,0-2.5,0-3.8,0c-0.4,0-0.7,0-0.7,0.6c0,1.6,0,3.2,0,4.8
		c0,0.4,0.2,0.6,0.6,0.6c2.5,0,5.1,0,7.6,0c0.4,0,0.6-0.1,0.6-0.6c0-1.6,0-3.2,0-4.8c0-0.4-0.2-0.6-0.6-0.6
		C137.9,115.7,136.7,115.7,135.5,115.7z"/>
	<path class="st0" d="M294.4,124.4c-1.1-0.6-2.2-1.2-2.3-2.6c-0.1-2-0.1-4,0-6.1c0.1-1.4,1.3-2.6,2.7-2.6c3-0.1,6.1-0.1,9.1,0
		c1.6,0,2.8,1.4,2.8,2.9c0,1.7,0,3.4,0,5.1c0,1.5-0.6,2.5-2,3c-0.1,0.1-0.3,0-0.3,0.2C301.1,124.4,297.8,124.4,294.4,124.4z
		 M299.4,121.7c1.2,0,2.4,0,3.6,0c0.6,0,0.9-0.1,0.8-0.8c0-1.5,0-3,0-4.5c0-0.5-0.1-0.7-0.7-0.7c-2.5,0-4.9,0-7.4,0
		c-0.5,0-0.7,0.1-0.7,0.6c0,1.5,0,3.1,0,4.6c0,0.6,0.2,0.7,0.7,0.7C297,121.6,298.2,121.7,299.4,121.7z"/>
	<path class="st0" d="M143.6,124.4c0-3.6,0-7.1,0-10.7c0-0.5,0.2-0.6,0.7-0.7c1.6-0.2,2.8,0.3,4,1.4c2.2,2,4.6,3.8,6.9,5.7
		c0.3-0.2,0.1-0.4,0.1-0.6c0-1.9,0-3.8,0-5.7c0-0.5,0.1-0.7,0.6-0.7c2.3,0,2.3-0.1,2.3,2.3c0,3,0,6.1,0,9.1c-1,0-2,0-3,0
		c-2.9-2.4-5.7-4.7-8.8-7.2c0,2.6,0,4.9,0,7.2C145.5,124.4,144.5,124.4,143.6,124.4z"/>
	<path class="st0" d="M219.7,124.4c0-3.6,0-7.2-0.1-10.9c0-0.4,0.1-0.5,0.5-0.5c0.7,0,1.4,0,2.1,0c0.4,0,0.6,0.2,0.8,0.4
		c2.4,2,4.8,3.9,7.2,5.9c0.3,0.3,0.7,0.6,1.1,0.9c0-2.2,0-4.3,0-6.3c0-0.6,0.1-0.9,0.8-0.8c0.7,0.1,1.6-0.3,2,0.2
		c0.4,0.4,0.1,1.3,0.1,2c0,2.8,0,5.5,0,8.3c0,0.3-0.1,0.6,0.1,0.9c-1.1,0-2.1,0-3.2,0c0-0.2-0.2-0.3-0.3-0.4
		c-2.6-2.2-5.3-4.3-7.9-6.5c-0.1-0.1-0.2-0.2-0.4-0.1c0,2.3,0,4.6,0,7C221.6,124.4,220.6,124.4,219.7,124.4z"/>
	<path class="st0" d="M278.2,124.4c0-3.5,0.1-7,0-10.5c0-0.8,0.2-0.9,0.9-0.9c2.9,0,5.8,0,8.7,0c2.3,0,3.4,1.2,3.4,3.4
		c0,0.7,0,1.4-0.3,2c-0.1,0.1-0.1,0.2-0.1,0.3c0.8,1.7,0.3,3.6,0.4,5.3c0,0.1,0.1,0.2,0.1,0.3c-1,0-1.9,0-2.9,0c0-1.2-0.1-2.4,0-3.6
		c0-0.5-0.2-0.7-0.7-0.7c-2,0-4,0-6,0c-0.5,0-0.7,0.1-0.7,0.6c0,1.2,0,2.5,0,3.7C280.2,124.4,279.2,124.4,278.2,124.4z M284.7,117.3
		c1,0,2.1,0,3.1,0c0.6,0,0.7-0.3,0.7-0.8c0-0.4,0.1-0.8-0.6-0.8c-2.1,0-4.2,0-6.2,0c-0.8,0-0.5,0.5-0.5,0.9c0,0.4-0.1,0.8,0.5,0.8
		C282.7,117.3,283.7,117.3,284.7,117.3z"/>
	<path class="st0" d="M40.3,113c3.4,0,6.8-0.1,10.2,0c1.6,0,2.8,1.4,2.8,2.9c0,0.9,0.1,1.7-0.4,2.5c-0.1,0.1-0.1,0.2,0,0.3
		c0.8,1.8,0.3,3.7,0.4,5.6c-1,0-1.9,0-2.9,0c0-1.2,0-2.5,0-3.7c0-0.5-0.2-0.7-0.7-0.7c-2,0-4,0-6.1,0c-0.4,0-0.6,0.1-0.6,0.6
		c0,1.3,0,2.5,0,3.8c-0.8,0-1.6,0-2.4,0c-0.4,0-0.5-0.1-0.5-0.5C40.3,120.2,40.3,116.6,40.3,113z M46.7,117.3c1.1,0,2.1,0,3.2,0
		c0.6,0,0.6-0.4,0.5-0.8c0-0.4,0.2-0.9-0.6-0.8c-2.1,0-4.1,0-6.2,0c-0.8,0-0.5,0.5-0.5,0.9c0,0.4-0.1,0.8,0.5,0.8
		C44.7,117.3,45.7,117.3,46.7,117.3z"/>
	<path class="st0" d="M114.9,124.4c-1.9-0.8-2.5-2.2-2.3-4.2c0.1-0.9,0.1-1.9,0-2.9c-0.3-3.2,1.3-4.5,4.3-4.3c2.3,0.1,4.7,0,7,0
		c2.3,0,3.7,1.6,3.4,3.9c0,0.3-0.1,0.4-0.4,0.4c-0.7,0-1.4,0-2.1,0c-0.5,0-0.4-0.4-0.4-0.6c0.1-0.8-0.2-1-1-1c-2.3,0.1-4.6,0-6.9,0
		c-0.6,0-0.9,0.1-0.9,0.8c0.1,1.5,0,2.9,0,4.4c0,0.6,0.2,0.8,0.8,0.8c2.4,0,4.8,0,7.2,0c0.7,0,0.9-0.2,0.8-0.8
		c-0.1-0.7,0.2-1,0.9-0.8c0.1,0,0.3,0,0.4,0c0.5,0.1,1.3-0.3,1.5,0.1c0.3,0.6,0.2,1.4,0,2c-0.3,1.2-1.3,1.7-2.3,2.2
		C121.5,124.4,118.2,124.4,114.9,124.4z"/>
	<path class="st0" d="M323.1,124.4c0-3.5,0-7.1,0-10.6c0-0.6,0.1-0.8,0.7-0.7c3.1,0,6.1,0,9.2,0c1.6,0,2.9,1.1,3.1,2.6
		c0.3,2.2-0.4,3.8-2.2,4.3c-0.4,0.1-0.9,0.1-1.3,0.1c-2,0-4,0-6,0c-0.5,0-0.7,0.1-0.7,0.6c0,1.2,0,2.5,0,3.7
		C325,124.4,324.1,124.4,323.1,124.4z M329.6,117.3C329.6,117.3,329.6,117.3,329.6,117.3c1,0,2.1,0,3.1,0c0.6,0,0.6-0.3,0.6-0.7
		c0-0.4,0.2-0.9-0.5-0.9c-2.1,0-4.2,0-6.3,0c-0.7,0-0.4,0.5-0.5,0.8c0,0.3-0.2,0.8,0.5,0.8C327.5,117.3,328.5,117.3,329.6,117.3z"/>
	<path class="st0" d="M310,124.4c-1.5-0.7-2.4-1.7-2.4-3.5c0.1-2.4,0-4.8,0-7.2c0-0.5,0.1-0.7,0.6-0.7c0.7,0.1,1.7-0.3,2.2,0.2
		c0.4,0.4,0.1,1.4,0.1,2.1c0,1.8,0,3.7,0,5.5c0,0.7,0.1,0.9,0.9,0.9c2.4,0,4.7,0,7.1,0c0.7,0,0.9-0.2,0.9-0.8c0-2.4,0-4.7,0-7.1
		c0-0.6,0.1-0.8,0.7-0.7c0.7,0.1,1.7-0.3,2.1,0.2c0.4,0.4,0.1,1.3,0.1,2c0,1.7-0.1,3.4,0,5.1c0.1,2-0.5,3.4-2.4,4.1
		C316.6,124.4,313.3,124.4,310,124.4z"/>
	<path class="st0" d="M177,124.4c-1.8-0.7-2.6-1.9-2.5-3.9c0.1-2.2,0-4.4,0-6.7c0-0.6,0.1-0.9,0.8-0.8c0.7,0.1,1.6-0.2,2,0.1
		c0.5,0.4,0.1,1.4,0.2,2.1c0,1.9,0,3.8,0,5.7c0,0.6,0.2,0.7,0.7,0.7c2.4,0,4.9,0,7.3,0c0.6,0,0.8-0.2,0.8-0.8c0-2.4,0-4.8,0-7.2
		c0-0.7,0.3-0.8,0.8-0.7c0.3,0,0.5,0.1,0.8,0.2c1.3,0.1,1.3,0.1,1.3,1.5c0,1.9-0.1,3.8,0,5.7c0.1,2-0.6,3.3-2.4,4
		C183.5,124.4,180.2,124.4,177,124.4z"/>
	<path class="st0" d="M76.1,124.4c0-1.3,0-2.5,0-3.8c0-0.5-0.2-0.6-0.6-0.6c-0.6,0-1.1,0-1.7,0c-1.5-0.1-2.7-1.3-2.8-2.8
		c0-1.2,0-2.4,0-3.6c0-0.4,0.1-0.5,0.5-0.5c2.3-0.1,2.3-0.1,2.3,2.2c0,2.1,0,2.1,2.1,2.1c1.4,0,2.8-0.1,4.2,0c0.8,0,1.1-0.3,1-1
		c-0.1-0.9,0-1.8,0-2.7c0-0.4,0.1-0.6,0.6-0.6c2.3-0.1,2.3-0.1,2.3,2.1c0,0.6,0,1.2,0,1.9c0,1.6-1.2,2.9-2.8,3c-0.1,0-0.1,0-0.2,0
		c-0.7,0-1.6-0.2-2,0.1c-0.4,0.5-0.1,1.4-0.1,2.1c0,0.7,0,1.4,0,2.1C78,124.4,77,124.4,76.1,124.4z"/>
	<path class="st0" d="M207.4,124.4c0-2.6-0.1-5.2,0-7.8c0-0.8-0.2-0.9-0.9-0.9c-1.2,0.1-2.4,0-3.6,0c-0.7,0-0.6-0.5-0.5-0.8
		c0.2-0.6-0.7-1.8,0.5-1.8c4-0.1,8,0,12,0c0.1,0,0.2,0,0.2,0c0.6,0.7,0.1,1.5,0.3,2.3c0.1,0.4-0.3,0.4-0.6,0.4c-1.3,0-2.6,0-4,0
		c-0.4,0-0.6,0-0.6,0.5c0,2.6,0,5.3,0,7.9c0,0.1,0.1,0.2,0.1,0.2C209.3,124.4,208.3,124.4,207.4,124.4z"/>
	<path class="st0" d="M190,124.4c0-3.5,0-7,0-10.5c0-0.7,0.2-0.8,0.9-0.8c1.9,0,1.9,0,1.9,1.9c0,2,0,4,0,6c0,0.7,0.2,0.8,0.9,0.8
		c2.4,0,4.8,0,7.2,0c0.5,0,0.7,0.1,0.7,0.7c0,0.7,0,1.3,0,2C197.6,124.4,193.8,124.4,190,124.4z"/>
	<path class="st0" d="M216,124.4c0.2-0.3,0.1-0.6,0.1-0.9c0-3.2,0-6.4,0-9.6c0-0.6,0.1-0.9,0.8-0.9c1.9,0,1.9,0,1.9,1.9
		c0,3.1,0,6.3,0,9.4C217.9,124.4,216.9,124.4,216,124.4z"/>
	<path class="st0" d="M54.1,124.4c0-3.5,0-7.1,0-10.6c0-0.6,0.1-0.7,0.7-0.7c2,0,2,0,2,1.9c0,3.1,0,6.3,0,9.4
		C55.9,124.4,55,124.4,54.1,124.4z"/>
	<path class="st0" d="M211.3,64.7c-0.5-0.9-0.9-1.7-1.3-2.5c-0.2-0.5-0.4-0.5-0.9-0.2c-7.2,5-15.1,8.9-23.4,11.7
		c-6.1,2.1-12.4,3.7-18.9,4.2c-5,0.4-9.9,0.4-14.7-1.3c-1.6-0.6-3.1-1.3-4.4-2.5c-1.4-1.3-2.4-2.8-2.6-4.8c-0.4-2.9-0.8-5.7-0.6-8.7
		c0.3,0.3,0.3,0.7,0.4,1.1c1,2.8,3.1,4.4,5.7,5.4c3.8,1.5,7.7,1.8,11.7,1.6c15.4-0.9,29.1-6.4,41.8-14.9c0.5-0.3,0.5-0.6,0.2-1
		c-0.5-0.7-1-1.4-1.5-2.1c0,0,0-0.1,0-0.2c3.6,0.4,7.2,0.8,10.8,1c0.6,0,0.7,0.1,0.6,0.8c-0.5,4.1-1.5,8-2.8,11.9
		C211.5,64.4,211.4,64.5,211.3,64.7z"/>
	<path class="st0" d="M180.6,95.1c-1.5-0.5-3.1-1-4.6-1.5c-2.5-0.9-4.8-1.9-7.2-3c-0.7-0.3-0.7-0.6-0.3-1.2c1.9-2.4,3.8-4.9,5.7-7.4
		c0.5,0.8,0.7,1.6,1,2.4c0.2,0.5,0.4,0.7,1,0.6c5.9-1.1,11.6-2.8,17.2-5.1c7.5-3,14.6-6.7,21.1-11.5c4.2-3.2,8.2-6.7,11.2-11.1
		c2-2.9,3.4-6.1,3.2-9.9c0.5,0.7,0.6,1.4,0.8,2c0.7,2.2,1.2,4.4,1.5,6.7c0.3,2.2-0.3,4.2-1.2,6.2c-1.9,4.1-4.9,7.4-8.2,10.4
		c-8.9,7.9-19.3,13.1-30.4,16.9c-3.7,1.3-7.5,2.2-11.4,3c-0.6,0.1-0.6,0.3-0.3,0.7c0.3,0.5,0.7,1,1,1.6
		C180.7,94.9,180.6,95,180.6,95.1z"/>
	<path class="st0" d="M198.3,19.7c2.4,0.4,4.6,1.3,6.9,2.2c1,0.4,1.9,0.8,2.8,1.4c3.2,2,4.2,5.2,3,8.8c-1.2,3.5-3.6,6.3-6.2,8.9
		c-6.5,6.1-14.1,10.3-22.4,13.5c-4.2,1.6-8.5,2.9-12.9,3.7c-0.5,0.1-0.5,0.3-0.5,0.7c0.1,0.9,0.2,1.8,0.4,3c-1-0.8-1.9-1.5-2.8-2.3
		c-1.7-1.4-3.2-2.9-4.5-4.6c-0.2-0.3-0.4-0.6-0.1-0.9c2.2-2.5,4.3-5.1,6.2-7.7c0-0.1,0.1-0.1,0.2-0.2c0,0.8,0,1.5,0,2.3
		c0,0.6,0.1,0.8,0.7,0.6c9.9-2.1,18.9-6,26.7-12.5c2.6-2.2,5-4.6,6.4-7.8c1-2.1,1.3-4.3-0.2-6.4c-0.8-1.1-1.8-1.8-3-2.3
		C198.7,19.9,198.5,19.8,198.3,19.7L198.3,19.7z"/>
	<path class="st0" d="M189.4,35.7c-0.7-0.6-1.3-1.1-1.9-1.6c-0.4-0.4-0.7-0.3-1.1,0c-5,3.4-10.5,5.7-16.3,7
		c-3.4,0.8-6.9,1.1-10.4,0.4c-0.8-0.2-1.6-0.4-2.4-0.8c-2.1-1.2-2.9-3.1-2.2-5.4c0.7-2.3,2.1-4.1,4-5.6c1.4-1.1,2.9-1.9,4.8-2.6
		c-0.6,0.8-1.2,1.4-1.5,2.1c-1.1,2.1-0.4,3.7,1.9,4.4c1.9,0.6,3.8,0.4,5.8,0c3.5-0.6,8.3-2.6,10.6-4.5c-0.6-0.3-1.1-0.7-1.8-1.1
		c1,0,1.8,0.2,2.6,0.3c1.6,0.2,3.1,0.4,4.7,0.4c0.5,0,0.8,0.2,1.1,0.6C188.4,31.2,189.2,33.3,189.4,35.7z"/>
	<path class="st0" d="M223.8,82.3c-2,3.4-4.1,6.5-6.8,9.3c0.1-0.4,0.1-0.8,0.2-1.3c-1.9,1.3-3.7,2.5-5.6,3.6
		c-7.8,4.4-16.2,7.5-25.1,9c-4.6,0.7-9.2,1-13.8-0.3c-2.9-0.8-5.4-2.3-7.9-3.8c-0.3-0.2-0.7-0.4-1-0.6c0.3-0.2,0.6-0.1,0.9,0
		c4,1.4,8.2,1.7,12.4,1.3c14.2-1.2,27.1-6.3,38.9-14c1.5-1,1.5-1,1.3-2.8c-0.1-0.7,0.1-0.7,0.7-0.7
		C219.8,82.1,221.8,82.2,223.8,82.3z"/>
	<path class="st0" d="M57.7,113.5c0.8,0,1.5,0,2.3,0c0.4,0,0.5,0.3,0.6,0.6c1.1,2.2,2.2,4.4,3.4,6.7c0.2-0.4,0.4-0.7,0.5-1
		c0.9-1.9,1.9-3.7,2.8-5.6c0.2-0.4,0.4-0.6,0.9-0.6c0.6,0,1.2,0,2,0c-0.3,0.5-0.5,0.9-0.7,1.3c-1.3,2.6-2.6,5.3-3.9,7.9
		c-0.2,0.5-0.6,0.6-1.1,0.7c-1.5,0.2-2.2-0.4-2.8-1.7c-1.1-2.5-2.4-4.9-3.6-7.3C58,114.1,57.9,113.9,57.7,113.5z"/>
	<path class="st0" d="M198.3,19.7c-0.1,0-0.2,0-0.3-0.1c0,0,0,0,0,0C198.1,19.7,198.2,19.7,198.3,19.7
		C198.3,19.7,198.3,19.7,198.3,19.7z"/>
</g>
</svg>
