<?xml version="1.0" encoding="utf-8"?>
<!-- Generator: Adobe Illustrator 22.0.0, SVG Export Plug-In . SVG Version: 6.00 Build 0)  -->
<svg version="1.1" id="Layer_1" xmlns="http://www.w3.org/2000/svg" xmlns:xlink="http://www.w3.org/1999/xlink" x="0px" y="0px"
	 viewBox="0 0 376.5 144" style="enable-background:new 0 0 376.5 144;" xml:space="preserve">
<style type="text/css">
	.st0{fill:#031C6D;}
	.st1{fill:#00AAE2;}
</style>
<g>
	<path class="st0" d="M155.4,136.2c-0.2-0.3-0.5-0.2-0.8-0.4c-1-0.5-1.8-1.3-2.1-2.4c-0.3-1.4-0.2-1.6,1.2-1.6c0.5,0,1,0,1.4,0
		c0.5,0,0.9,0,0.8,0.7c0,0.4,0.3,0.5,0.7,0.5c3.1,0,6.3,0,9.4,0c0.9,0,0.6-0.6,0.7-1.1c0-0.6,0-1-0.8-1c-3.1,0-6.2,0-9.3,0
		c-1.1,0-2-0.2-2.9-0.9c-1.3-1.1-1.8-3.3-1.2-5.2c0.5-1.5,1.9-2.5,3.7-2.5c3.4,0,6.9,0,10.3,0c2.1,0,3.7,1.6,3.8,3.6
		c0,0.5-0.1,0.8-0.7,0.8c-0.6-0.1-1.2,0-1.8,0c-0.6,0-1.3,0.2-1.2-0.8c0-0.4-0.5-0.3-0.8-0.3c-3,0-6.1,0-9.1,0
		c-0.7,0-0.9,0.2-0.9,0.9c0,0.7,0,1.1,0.9,1.1c3,0,6,0,9,0c0.8,0,1.7,0.1,2.4,0.5c1.4,0.7,2.1,1.9,2.1,3.5c0.1,1.8-0.3,3.3-2,4.2
		c-0.3,0.2-0.7,0.1-0.8,0.5C163.5,136.2,159.5,136.2,155.4,136.2z"/>
	<path class="st0" d="M248.5,136.2c-0.2-0.4-0.7-0.4-1-0.6c-1.1-0.7-1.8-1.7-1.8-3.1c0-2.2,0-4.3,0-6.5c0-2.2,1.6-3.7,3.7-3.7
		c3.5,0,7,0,10.5,0c2.1,0,3.7,1.7,3.7,3.7c0,0.5-0.2,0.7-0.7,0.7c-0.7,0-1.4,0-2.1,0c-0.5,0-0.9,0.1-0.8-0.6c0-0.4-0.3-0.4-0.7-0.4
		c-3.1,0-6.3,0-9.4,0c-0.4,0-0.7,0.1-0.7,0.6c0,2,0,4,0,6c0,0.5,0.1,0.7,0.7,0.7c3.1,0,6.3,0,9.4,0c1,0,0.7-0.6,0.7-1.1
		c0-0.5,0-0.9-0.7-0.9c-1.9,0.1-3.8,0-5.7,0c-0.6,0-0.8-0.1-0.8-0.8c0-2.5,0-2.5,2.5-2.5c2.5,0,5,0,7.4,0c0.7,0,0.9,0.2,0.9,0.9
		c-0.1,1.3-0.1,2.6,0,3.8c0.1,1.9-0.9,3-2.5,3.7c-0.1,0.1-0.4,0-0.4,0.2C256.7,136.2,252.6,136.2,248.5,136.2z"/>
	<path class="st0" d="M282.5,136.2c-0.1-0.3-0.5-0.3-0.7-0.4c-1.2-0.7-2-1.7-2-3.2c0-2.2,0-4.3,0-6.5c0-2.2,1.6-3.7,3.7-3.7
		c3.5,0,7,0,10.4,0c2.2,0,3.8,1.7,3.8,3.7c0,0.6-0.2,0.7-0.7,0.7c-0.6,0-1.2,0-1.9,0c-0.5,0-1.2,0.2-1.1-0.7c0-0.4-0.4-0.3-0.6-0.3
		c-3.1,0-6.3,0-9.4,0c-0.5,0-0.7,0.2-0.7,0.7c0,1.9,0,3.9,0,5.8c0,0.6,0.2,0.8,0.8,0.8c3.1,0,6.2,0,9.3,0c1,0,0.7-0.6,0.7-1.1
		c0-0.5,0.1-0.9-0.7-0.9c-1.9,0.1-3.8,0-5.7,0c-0.6,0-0.8-0.2-0.8-0.8c0-2.5-0.1-2.5,2.4-2.5c2.5,0,5,0,7.6,0c0.7,0,0.9,0.2,0.9,0.9
		c-0.1,1-0.1,1.9,0,2.9c0.3,2.4-0.7,4-3,4.9C290.6,136.2,286.5,136.2,282.5,136.2z"/>
	<path class="st0" d="M61.4,136.2c0-3.2,0-6.5,0-9.7c0-2.7,1.5-4.2,4.1-4.2c3.2,0,6.5,0,9.7,0c2.7,0,4.1,1.5,4.1,4.2
		c0,3.2,0,6.5,0,9.7c-1.2,0-2.3,0-3.5,0c0-1.5-0.1-3.1-0.1-4.6c0-0.4-0.1-0.7-0.6-0.7c-3.2,0-6.4,0-9.6,0c-0.4,0-0.6,0.2-0.6,0.6
		c0.1,1.6-0.1,3.2,0.1,4.7C63.9,136.2,62.7,136.2,61.4,136.2z M70.3,127.6c1.6,0,3.2,0,4.8,0c0.7,0,0.8-0.3,0.8-0.9
		c-0.1-0.5,0.2-1.1-0.7-1.1c-3.1,0-6.2,0-9.3,0c-0.9,0-0.7,0.6-0.8,1.1c-0.1,0.6,0.1,0.9,0.8,0.9C67.4,127.5,68.9,127.6,70.3,127.6z
		"/>
	<path class="st0" d="M117.3,136.2c-0.7-0.5-1.6-0.8-2.1-1.5c-0.5-0.7-0.8-1.4-0.8-2.3c0-2.1,0-4.2,0-6.3c0-2.1,1.5-3.7,3.7-3.8
		c3.5-0.1,7.1-0.1,10.6,0c2.2,0,3.7,1.6,3.7,3.8c0,2,0,4,0,6c0,1.9-0.9,3.2-2.6,3.9c-0.1,0-0.3,0-0.3,0.2
		C125.5,136.2,121.4,136.2,117.3,136.2z M123.5,125.6c-1.6,0-3.1,0-4.7,0c-0.5,0-0.9,0-0.9,0.7c0,2,0,3.9,0,5.9
		c0,0.5,0.2,0.7,0.7,0.7c3.1,0,6.2,0,9.3,0c0.5,0,0.7-0.2,0.7-0.7c0-2,0-3.9,0-5.9c0-0.5-0.2-0.7-0.7-0.7
		C126.6,125.6,125,125.6,123.5,125.6z"/>
	<path class="st0" d="M318.5,136.2c-1.3-0.7-2.7-1.5-2.8-3.2c-0.1-2.5-0.1-5,0-7.4c0.1-1.7,1.6-3.2,3.3-3.2c3.7-0.1,7.4-0.1,11.2,0
		c1.9,0,3.4,1.7,3.4,3.6c0,2.1,0,4.2,0,6.3c0,1.9-0.8,3-2.5,3.7c-0.1,0.1-0.4,0-0.4,0.2C326.6,136.2,322.6,136.2,318.5,136.2z
		 M324.6,132.9c1.5,0,3,0,4.4,0c0.7,0,1.1-0.1,1-1c-0.1-1.8,0-3.6,0-5.5c0-0.7-0.2-0.9-0.9-0.9c-3,0-6.1,0-9.1,0
		c-0.6,0-0.9,0.1-0.9,0.8c0,1.9,0,3.8,0,5.7c0,0.7,0.3,0.9,0.9,0.8C321.6,132.9,323.1,132.9,324.6,132.9z"/>
	<path class="st0" d="M133.5,136.2c0-4.4,0-8.8,0-13.1c0-0.6,0.2-0.7,0.8-0.8c1.9-0.2,3.5,0.4,4.9,1.7c2.7,2.4,5.6,4.7,8.4,7
		c0.3-0.2,0.2-0.5,0.2-0.8c0-2.3,0-4.7,0-7c0-0.6,0.1-0.8,0.8-0.9c2.9-0.1,2.9-0.1,2.9,2.8c0,3.7,0,7.4,0,11.2c-1.2,0-2.5,0-3.7,0
		c-3.5-2.9-7.1-5.8-10.8-8.9c0,3.2,0,6,0,8.9C135.8,136.2,134.6,136.2,133.5,136.2z"/>
	<path class="st0" d="M226.8,136.2c0-4.4,0-8.9-0.1-13.3c0-0.4,0.1-0.6,0.6-0.6c0.9,0,1.7,0,2.6,0c0.4,0,0.7,0.2,1,0.5
		c2.9,2.4,5.9,4.8,8.8,7.2c0.4,0.3,0.8,0.7,1.4,1.1c0-2.7,0-5.2,0-7.8c0-0.8,0.1-1.1,1-1c0.8,0.1,2-0.4,2.5,0.2
		c0.5,0.5,0.1,1.6,0.1,2.5c0,3.4,0,6.8,0,10.1c0,0.4-0.1,0.8,0.1,1.1c-1.3,0-2.6,0-3.9,0c0-0.3-0.2-0.3-0.3-0.5
		c-3.2-2.7-6.5-5.3-9.7-8c-0.1-0.1-0.2-0.3-0.5-0.1c0,2.8,0,5.7,0,8.6C229.1,136.2,228,136.2,226.8,136.2z"/>
	<path class="st0" d="M298.6,136.2c0-4.3,0.1-8.5,0-12.8c0-0.9,0.3-1.1,1.1-1.1c3.6,0.1,7.1,0,10.7,0c2.8,0,4.2,1.5,4.2,4.2
		c0,0.8,0.1,1.7-0.4,2.4c-0.1,0.1-0.1,0.3-0.1,0.4c1,2.1,0.3,4.4,0.5,6.5c0,0.1,0.1,0.2,0.1,0.4c-1.2,0-2.3,0-3.5,0
		c0-1.5-0.1-3-0.1-4.4c0-0.7-0.2-0.9-0.9-0.9c-2.4,0-4.9,0-7.3,0c-0.6,0-0.8,0.1-0.8,0.8c0,1.5,0,3,0,4.5
		C301,136.2,299.8,136.2,298.6,136.2z M306.5,127.6c1.3,0,2.6,0,3.8,0c0.8,0,0.8-0.4,0.8-1c0-0.5,0.1-1-0.7-1c-2.6,0-5.1,0-7.7,0
		c-0.9,0-0.6,0.6-0.6,1.1c0,0.5-0.2,1,0.7,0.9C304.1,127.5,305.3,127.6,306.5,127.6z"/>
	<path class="st0" d="M6.8,122.3c4.2,0,8.3-0.1,12.5,0c1.9,0,3.4,1.7,3.4,3.6c0,1.1,0.1,2.1-0.5,3.1c-0.1,0.1-0.1,0.2-0.1,0.4
		c1,2.2,0.3,4.5,0.5,6.8c-1.2,0-2.3,0-3.5,0c0-1.5,0-3,0-4.5c0-0.7-0.3-0.8-0.9-0.8c-2.5,0-4.9,0-7.4,0c-0.5,0-0.7,0.2-0.7,0.7
		c0,1.5,0,3.1,0,4.6c-1,0-1.9,0-2.9,0c-0.5,0-0.6-0.1-0.6-0.6C6.8,131.2,6.8,126.8,6.8,122.3z M14.7,127.6c1.3,0,2.6,0,3.9,0
		c0.8,0,0.7-0.5,0.7-1c0-0.5,0.2-1-0.7-1c-2.5,0-5.1,0-7.6,0c-0.9,0-0.6,0.6-0.6,1.1c0,0.4-0.2,1,0.6,0.9
		C12.2,127.5,13.4,127.6,14.7,127.6z"/>
	<path class="st0" d="M98.3,136.2c-2.3-1-3.1-2.7-2.9-5.1c0.1-1.2,0.1-2.3,0-3.5c-0.3-3.9,1.5-5.5,5.3-5.3c2.9,0.1,5.7,0,8.6,0
		c2.9,0,4.5,2,4.1,4.8c-0.1,0.4-0.2,0.5-0.5,0.5c-0.9,0-1.7,0-2.6,0c-0.7,0-0.5-0.4-0.5-0.8c0.2-1-0.3-1.3-1.3-1.2
		c-2.8,0.1-5.7,0-8.5,0c-0.8,0-1.1,0.1-1.1,1c0.1,1.8,0,3.6,0,5.4c0,0.7,0.2,0.9,0.9,0.9c3,0,5.9,0,8.9,0c0.8,0,1.1-0.3,1-1
		c-0.1-0.9,0.2-1.2,1.1-1c0.2,0,0.3,0,0.5,0c0.6,0.1,1.6-0.3,1.9,0.2c0.4,0.7,0.2,1.7,0,2.5c-0.4,1.4-1.6,2.1-2.8,2.7
		C106.4,136.2,102.3,136.2,98.3,136.2z"/>
	<path class="st0" d="M353.7,136.2c0-4.3,0-8.7,0-13c0-0.7,0.2-0.9,0.9-0.9c3.8,0,7.5,0,11.3,0c2,0,3.5,1.3,3.8,3.1
		c0.4,2.7-0.5,4.6-2.6,5.3c-0.5,0.2-1.1,0.2-1.6,0.2c-2.4,0-4.9,0-7.3,0c-0.6,0-0.8,0.1-0.8,0.8c0.1,1.5,0,3,0,4.5
		C356,136.2,354.8,136.2,353.7,136.2z M361.6,127.6C361.6,127.6,361.6,127.6,361.6,127.6c1.3,0,2.5,0,3.8,0c0.7,0,0.8-0.4,0.7-0.9
		c0-0.5,0.2-1.1-0.7-1.1c-2.6,0-5.2,0-7.7,0c-0.9,0-0.5,0.6-0.6,1c0,0.4-0.3,1,0.6,1C359,127.5,360.3,127.6,361.6,127.6z"/>
	<path class="st0" d="M337.5,136.2c-1.8-0.8-3-2-2.9-4.2c0.1-3,0-5.9,0-8.9c0-0.6,0.1-0.9,0.8-0.8c0.9,0.1,2.1-0.4,2.7,0.2
		c0.5,0.5,0.2,1.7,0.2,2.6c0,2.2,0,4.5,0,6.7c0,0.8,0.2,1.1,1.1,1.1c2.9-0.1,5.8,0,8.7,0c0.8,0,1.1-0.2,1.1-1c0-2.9,0-5.8,0-8.7
		c0-0.7,0.2-1,0.9-0.9c0.9,0.1,2-0.4,2.6,0.2c0.4,0.5,0.1,1.6,0.2,2.5c0,2.1-0.1,4.1,0,6.2c0.2,2.4-0.6,4.1-2.9,5
		C345.7,136.2,341.6,136.2,337.5,136.2z"/>
	<path class="st0" d="M174.4,136.2c-2.2-0.8-3.2-2.4-3-4.8c0.1-2.7,0.1-5.4,0-8.2c0-0.7,0.1-1.1,0.9-1c0.8,0.1,2-0.3,2.5,0.2
		c0.6,0.5,0.2,1.7,0.2,2.6c0,2.3,0,4.7,0,7c0,0.7,0.2,0.9,0.9,0.9c3,0,6,0,9,0c0.7,0,0.9-0.2,0.9-0.9c0-2.9,0-5.9,0-8.8
		c0-0.9,0.3-1,1-0.9c0.3,0,0.7,0.2,1,0.2c1.6,0.1,1.6,0.1,1.6,1.8c0,2.3-0.1,4.7,0,7c0.2,2.4-0.7,4-3,4.9
		C182.4,136.2,178.4,136.2,174.4,136.2z"/>
	<path class="st0" d="M50.7,136.2c0-1.6,0-3.1,0.1-4.7c0-0.6-0.2-0.7-0.7-0.7c-0.7,0-1.4,0-2.1,0c-1.9-0.1-3.4-1.6-3.4-3.5
		c-0.1-1.5,0-3,0-4.4c0-0.5,0.2-0.6,0.7-0.6c2.9-0.1,2.9-0.2,2.9,2.7c0,2.6,0,2.6,2.6,2.6c1.7,0,3.5-0.1,5.2,0
		c1,0.1,1.3-0.3,1.2-1.3c-0.1-1.1,0-2.2,0-3.3c0-0.5,0.2-0.7,0.7-0.7c2.8-0.1,2.8-0.1,2.8,2.6c0,0.8,0,1.5,0,2.3
		c0,2-1.5,3.5-3.5,3.7c-0.1,0-0.1,0-0.2,0c-0.8,0-2-0.3-2.4,0.1c-0.5,0.6-0.1,1.7-0.2,2.6c0,0.9,0,1.7,0,2.6
		C53,136.2,51.8,136.2,50.7,136.2z"/>
	<path class="st0" d="M211.7,136.2c0-3.2-0.1-6.3,0-9.5c0-1-0.3-1.2-1.2-1.1c-1.5,0.1-3,0-4.4,0c-0.9,0-0.8-0.6-0.6-1
		c0.3-0.8-0.8-2.2,0.6-2.2c4.9-0.2,9.8-0.1,14.7-0.1c0.1,0,0.3,0,0.3,0c0.7,0.9,0.2,1.9,0.3,2.8c0.1,0.5-0.4,0.5-0.7,0.5
		c-1.6,0-3.2,0-4.9,0c-0.4,0-0.7,0.1-0.7,0.6c0,3.2,0,6.5,0,9.7c0,0.1,0.1,0.2,0.1,0.3C214,136.2,212.9,136.2,211.7,136.2z"/>
	<path class="st0" d="M190.4,136.2c0-4.3,0.1-8.6,0-12.9c0-0.8,0.3-1,1-1c2.3,0,2.3,0,2.3,2.3c0,2.4,0,4.9,0,7.3c0,0.9,0.3,1,1,1
		c2.9,0,5.9,0,8.8,0c0.7,0,0.9,0.2,0.9,0.9c-0.1,0.8,0,1.7,0,2.5C199.8,136.2,195.1,136.2,190.4,136.2z"/>
	<path class="st0" d="M222.2,136.2c0.3-0.3,0.1-0.7,0.1-1.1c0-3.9,0-7.9,0-11.8c0-0.7,0.1-1.1,1-1.1c2.4,0.1,2.4,0,2.4,2.4
		c0,3.9,0,7.7,0.1,11.6C224.6,136.2,223.4,136.2,222.2,136.2z"/>
	<path class="st0" d="M23.8,136.2c0-4.3,0-8.7,0-13c0-0.7,0.2-0.9,0.9-0.9c2.4,0,2.4,0,2.4,2.4c0,3.9,0,7.7,0,11.6
		C26,136.2,24.9,136.2,23.8,136.2z"/>
	<path class="st0" d="M216.6,63c-0.6-1.1-1.1-2.1-1.6-3.1c-0.3-0.6-0.5-0.6-1-0.2c-8.9,6.2-18.5,10.9-28.7,14.4
		c-7.5,2.6-15.3,4.5-23.2,5.2c-6.1,0.5-12.1,0.5-18-1.6c-2-0.7-3.8-1.6-5.3-3c-1.7-1.6-2.9-3.5-3.2-5.8c-0.5-3.5-1-7-0.7-10.7
		c0.3,0.4,0.3,0.9,0.5,1.3c1.2,3.4,3.8,5.3,6.9,6.6c4.6,1.8,9.4,2.2,14.3,1.9c18.8-1.2,35.7-7.9,51.3-18.3c0.6-0.4,0.7-0.7,0.2-1.3
		c-0.7-0.8-1.2-1.7-1.8-2.6c0,0,0-0.1,0-0.2c4.4,0.5,8.8,1,13.3,1.2c0.7,0,0.9,0.2,0.8,1c-0.7,5-1.8,9.9-3.4,14.6
		C216.8,62.6,216.7,62.8,216.6,63z"/>
	<path class="st1" d="M178.9,100.3c-1.9-0.6-3.8-1.2-5.6-1.8c-3-1-5.9-2.3-8.8-3.7c-0.9-0.4-0.9-0.7-0.3-1.5c2.3-3,4.6-6,7-9.1
		c0.6,0.9,0.9,2,1.3,3c0.2,0.6,0.5,0.8,1.2,0.7c7.3-1.4,14.3-3.5,21.1-6.2c9.2-3.7,17.9-8.2,25.9-14.2c5.2-3.9,10-8.2,13.7-13.6
		c2.4-3.6,4.2-7.4,3.9-12.1c0.6,0.9,0.7,1.7,1,2.5c0.9,2.7,1.5,5.4,1.9,8.2c0.4,2.7-0.3,5.2-1.5,7.6c-2.3,5.1-6,9.1-10.1,12.8
		c-10.9,9.7-23.6,16.1-37.3,20.7c-4.6,1.5-9.2,2.8-14,3.6c-0.7,0.1-0.7,0.4-0.4,0.9c0.4,0.6,0.8,1.3,1.2,1.9
		C178.9,100.1,178.9,100.2,178.9,100.3z"/>
	<path class="st1" d="M200.5,7.9c3,0.4,5.7,1.6,8.4,2.7c1.2,0.5,2.4,1,3.4,1.7c3.9,2.4,5.2,6.3,3.6,10.9c-1.5,4.4-4.4,7.8-7.6,10.9
		c-7.9,7.5-17.4,12.6-27.4,16.6c-5.1,2-10.4,3.6-15.8,4.5c-0.6,0.1-0.7,0.4-0.6,0.8c0.1,1.1,0.3,2.2,0.4,3.7c-1.3-1-2.4-1.9-3.5-2.8
		c-2.1-1.7-3.9-3.6-5.5-5.7c-0.3-0.4-0.5-0.7-0.1-1.2c2.7-3,5.2-6.2,7.6-9.5c0-0.1,0.2-0.1,0.3-0.2c0,1,0,1.9,0,2.8
		c0,0.7,0.2,0.9,0.9,0.8c12.1-2.6,23.2-7.4,32.8-15.3c3.2-2.7,6.1-5.7,7.9-9.6c1.2-2.6,1.6-5.3-0.2-7.9c-0.9-1.3-2.3-2.2-3.7-2.9
		C201.1,8.2,200.8,8,200.5,7.9C200.5,7.9,200.5,7.9,200.5,7.9z"/>
	<path class="st0" d="M189.7,27.4c-0.9-0.7-1.6-1.3-2.3-1.9c-0.5-0.5-0.9-0.4-1.4,0c-6.1,4.2-12.8,7-20,8.6
		c-4.2,0.9-8.4,1.4-12.7,0.5c-1-0.2-2-0.5-2.9-1c-2.6-1.4-3.6-3.7-2.7-6.6c0.9-2.8,2.6-5.1,4.9-6.9c1.7-1.4,3.6-2.4,5.9-3.2
		c-0.8,1-1.4,1.7-1.9,2.6c-1.3,2.5-0.4,4.6,2.3,5.4c2.3,0.7,4.7,0.4,7.1,0c4.3-0.8,10.1-3.2,13-5.5c-0.7-0.4-1.4-0.8-2.3-1.3
		c1.3,0,2.2,0.3,3.2,0.4c1.9,0.3,3.8,0.4,5.8,0.5c0.6,0,1,0.2,1.3,0.8C188.5,22,189.4,24.5,189.7,27.4z"/>
	<path class="st0" d="M231.9,84.7c-2.5,4.1-5,8-8.3,11.4c0.1-0.5,0.2-0.9,0.3-1.5c-2.3,1.6-4.6,3.1-6.9,4.4
		c-9.6,5.4-19.8,9.2-30.7,11c-5.6,0.9-11.3,1.2-16.9-0.3c-3.5-1-6.6-2.9-9.7-4.7c-0.4-0.2-0.8-0.5-1.2-0.8c0.4-0.2,0.7-0.1,1,0
		c4.9,1.8,10.1,2,15.2,1.6c17.4-1.5,33.2-7.7,47.8-17.2c1.9-1.2,1.9-1.2,1.5-3.4c-0.1-0.8,0.1-0.9,0.8-0.9
		C227,84.4,229.4,84.5,231.9,84.7z"/>
	<path class="st0" d="M28.2,122.9c1,0,1.9,0,2.8,0c0.5,0,0.6,0.4,0.7,0.7c1.3,2.7,2.7,5.3,4.1,8.2c0.3-0.5,0.4-0.9,0.6-1.3
		c1.2-2.3,2.3-4.6,3.5-6.9c0.3-0.5,0.5-0.8,1.2-0.7c0.8,0.1,1.5,0,2.4,0c-0.3,0.6-0.6,1.1-0.8,1.6c-1.6,3.2-3.2,6.4-4.8,9.7
		c-0.3,0.6-0.7,0.7-1.3,0.8c-1.8,0.3-2.7-0.5-3.4-2.1c-1.3-3-2.9-6-4.4-9C28.5,123.7,28.4,123.4,28.2,122.9z"/>
	<path class="st1" d="M200.5,7.9c-0.1,0-0.2,0-0.3-0.1c0,0,0,0,0.1,0C200.4,7.8,200.4,7.9,200.5,7.9C200.5,7.9,200.5,7.9,200.5,7.9z
		"/>
</g>
</svg>
